<svg id="Warstwa_1" data-name="Warstwa 1" xmlns="http://www.w3.org/2000/svg" viewBox="0 0 1069.77 318.87" width="150" height="60">
    <defs>
        <style>.cls-1{fill:#a70584;}.cls-2{fill:#36b587;}.cls-3{fill:#fad05b;}</style>
    </defs>
    <title>logo_PayPo_</title>
    <rect class="cls-1" x="103.88" y="178.25" width="59.51" height="60" transform="translate(341.89 74.62) rotate(90)"/>
    <rect class="cls-2" x="103.39" y="97.76" width="60" height="60" transform="translate(261.14 -5.63) rotate(90)"/>
    <rect class="cls-3" x="23.39" y="177.76" width="60" height="60" transform="translate(261.14 154.37) rotate(90)"/>
    <path d="M342.51,94c0,41.36-33.28,74.65-76.2,74.65H233.65v68.42H183.89V19.39h82.42C309.23,19.39,342.51,52.67,342.51,94Zm-49.76,0c0-15.87-11.2-28-26.44-28H233.65v56h32.66C281.55,122,292.75,109.9,292.75,94Z"/>
    <path d="M516.07,77.35V237H468.18V222c-10.54,12.13-26.18,19.48-47.58,19.48-41.82,0-76.31-36.72-76.31-84.3s34.49-84.29,76.31-84.29c21.4,0,37,7.34,47.58,19.48v-15Zm-47.89,79.82c0-23.94-16-38.95-38-38.95s-38,15-38,38.95,16,39,38,39S468.18,181.12,468.18,157.17Z"/>
    <path d="M698,77.35,643.8,231.14c-17.76,50.42-46,70.4-90.37,68.18v-44.4c22.19,0,32.66-7,39.64-26.31L530,77.35h52.32l35.2,97,29.81-97Z"/>
    <path d="M875.32,94c0,41.36-33.29,74.65-76.21,74.65H766.45v68.42H716.69V19.39h82.42C842,19.39,875.32,52.67,875.32,94Zm-49.77,0c0-15.87-11.2-28-26.44-28H766.45v56h32.66C814.35,122,825.55,109.9,825.55,94Z"/>
    <path d="M881.54,159.35c0-46.34,36.7-82.11,82.42-82.11s82.43,35.77,82.43,82.11-36.71,82.12-82.43,82.12S881.54,205.7,881.54,159.35Zm118.19,0c0-22.08-15.55-36.7-35.77-36.7s-35.77,14.62-35.77,36.7,15.55,36.71,35.77,36.71S999.73,181.44,999.73,159.35Z"/>
</svg>