<svg width="24" height="24" xmlns="http://www.w3.org/2000/svg">
  <path fill="none" d="M-1-1h582v402H-1z"/>
  <path d="M15.999 23h-.5a.5.5 0 0 0 0 1h.5a.5.5 0 0 0 0-1zm3.15-1.35l-.5.5a.502.502 0 0 0 .71.71l.5-.5a.502.502 0 0 0-.71-.71zm4.35 1.35h-.5a.5.5 0 0 0 0 1h.5a.5.5 0 0 0 0-1zM2.649 9.65l-.5.5a.502.502 0 0 0 .71.71l.5-.5a.502.502 0 0 0-.71-.71zM4.499 6a.5.5 0 0 0-.5.5V7a.5.5 0 0 0 1 0v-.5a.5.5 0 0 0-.5-.5zm3.35-2.35a.502.502 0 0 0-.71.71l.5.5a.502.502 0 0 0 .71-.71l-.5-.5zm3.3-1.5l-.5.5a.502.502 0 0 0 .71.71l.5-.5a.502.502 0 0 0-.71-.71zm3.7.5a.502.502 0 0 0-.71.71l.5.5a.502.502 0 0 0 .71-.71l-.5-.5z"/>
  <path d="M22.999 16.29a.5.5 0 0 0 .28-.3c2.26-6.23-.958-13.113-7.188-15.373S2.978 1.574.718 7.804A12.006 12.006 0 0 0-.001 12c0 .37 0 .73.05 1.09A11.93 11.93 0 0 0 11.999 24a.5.5 0 0 0 .5-.5c0-1 .2-2.17 1.17-2.53a.5.5 0 0 0 .26-.71 3.936 3.936 0 0 1 .13-1.86.5.5 0 0 0-.61-.58 6 6 0 0 1-7.45-5.76 6 6 0 0 1 6-6 6 6 0 0 1 5 9.27.499.499 0 0 0 .35.77h.61c.41-.035.82.063 1.17.28a.5.5 0 0 0 .7 0c.29-.3.58-.35 1.18-.35h.46c.386.002.766.094 1.11.27a.501.501 0 0 0 .42-.01zm-18-4.64c-.15.04-.297.09-.44.15h-.06a2.752 2.752 0 0 0-.35.19h-.06l-.27.2-.22.2a1.43 1.43 0 0 1-1.3.61 3.15 3.15 0 0 1-.73-.09l-.21-.07-.36-.14V12C1.012 5.925 5.947 1.01 12.022 1.023a11 11 0 0 1 8.517 4.067c-.59.126-1.2.126-1.79 0a5.93 5.93 0 0 0-.93-.1 1.885 1.885 0 0 0-.5.08h-.11a2.444 2.444 0 0 0-.47.21 2.769 2.769 0 0 0-.39.3l-.09.08c-.126.122-.24.256-.34.4A6.912 6.912 0 0 0 11.999 5a6.999 6.999 0 0 0-7 6.65z"/>
</svg>
