<svg height="32" width="32" xmlns="http://www.w3.org/2000/svg">
  <path fill="none" d="M0 0h32v32H0z"/>
  <path d="M12 18a4 4 0 1 0 0-8 4 4 0 0 0 0 8zm12-3.941V5.584L18.414 0H0v32h24v-.06c4.499-.498 7.999-4.308 7.999-8.94s-3.5-8.443-7.999-8.941zM17.998 2.413L21.586 6h-3.588V2.413zM2 30V1.998h14v6.001h6v6.06A8.997 8.997 0 0 0 14.523 20H6s-2 0-2 2v6h11.518a9.005 9.005 0 0 0 1.832 2H2zm21-.001A7.01 7.01 0 0 1 16 23a7.009 7.009 0 0 1 7-7 7.01 7.01 0 0 1 6.999 7A7.011 7.011 0 0 1 23 29.999z"/>
  <path d="M26.144 22c.008-.131.014-.267.014-.409-.006-.678-.088-1.492-.556-2.259-.457-.779-1.438-1.36-2.602-1.333-1.165-.027-2.148.554-2.605 1.333-.47.767-.552 1.581-.556 2.259 0 .143.006.278.014.409H19v5h8v-5h-.856zm-4.307-.409c-.004-.478.093-.958.254-1.198.173-.227.27-.366.909-.394.637.027.73.165.904.394.162.24.259.723.253 1.198 0 .145-.008.28-.019.409h-2.282a5.346 5.346 0 0 1-.019-.409z"/>
</svg>
