<?xml version="1.0" standalone="no"?>
<!DOCTYPE svg PUBLIC "-//W3C//DTD SVG 1.1//EN" "http://www.w3.org/Graphics/SVG/1.1/DTD/svg11.dtd" >
<svg xmlns="http://www.w3.org/2000/svg" xmlns:xlink="http://www.w3.org/1999/xlink" version="1.1">
<metadata></metadata>
<defs>
<font id="radikalultrathin" horiz-adv-x="571" >
<font-face units-per-em="1000" ascent="750" descent="-250" />
<missing-glyph horiz-adv-x="250" />
<glyph unicode="fi" horiz-adv-x="523" d="M244 760q47 0 81 -26l-14 -20q-25 21 -67 21q-48 0 -76.5 -35t-28.5 -89v-116h157v-25h-157v-470h-25v470h-93v25h93v116q0 64 35.5 106.5t94.5 42.5zM431 495v-495h-25v495h25zM419 690q13 0 22 -9t9 -22t-9 -21.5t-22 -8.5t-21.5 8.5t-8.5 21.5t8.5 22t21.5 9z" />
<glyph unicode="fj" horiz-adv-x="523" d="M244 760q47 0 81 -26l-14 -20q-25 21 -67 21q-48 0 -76.5 -35t-28.5 -89v-116h157v-25h-157v-470h-25v470h-93v25h93v116q0 64 35.5 106.5t94.5 42.5zM431 495v-596q0 -59 -39.5 -99t-99.5 -40q-68 0 -115 47l18 18q40 -40 97 -40q49 0 81.5 32.5t32.5 81.5v596h25z M419 690q13 0 22 -9t9 -22t-9 -21.5t-22 -8.5t-21.5 8.5t-8.5 21.5t8.5 22t21.5 9z" />
<glyph unicode=" "  horiz-adv-x="250" />
<glyph unicode="&#x09;" horiz-adv-x="250" />
<glyph unicode="&#xa0;" horiz-adv-x="250" />
<glyph unicode="!" horiz-adv-x="215" d="M108 48q13 0 22 -9t9 -22t-9 -21.5t-22 -8.5t-21.5 8.5t-8.5 21.5t8.5 22t21.5 9zM120 735v-561h-25v561h25z" />
<glyph unicode="&#x22;" horiz-adv-x="230" d="M50 743l30 -8l-14 -242h-16v250zM165 743l30 -8l-14 -242h-16v250z" />
<glyph unicode="#" horiz-adv-x="707" d="M556 735l-41 -231h174v-25h-178l-41 -234h172v-25h-176l-38 -220h-26l39 220h-241l-38 -220h-26l39 220h-174v25h178l42 234h-173v25h177l41 231h24l-41 -231h242l41 231h24zM487 479h-242l-41 -234h241z" />
<glyph unicode="$" horiz-adv-x="558" d="M272 748v121h25v-122q102 -8 187 -77l-16 -22q-87 73 -196 73q-83 0 -135.5 -42t-52.5 -125q0 -71 46 -104t162 -60q126 -30 181 -73.5t55 -125.5q0 -90 -63.5 -146t-167.5 -58v-116h-25v117q-132 5 -226 87l19 22q42 -39 102 -61t124 -22q91 0 151 46.5t60 130.5 q0 69 -51.5 108t-165.5 65q-126 29 -177 69t-51 121q0 92 59 143t156 51z" />
<glyph unicode="%" horiz-adv-x="831" d="M675 735l-488 -735h-33l488 735h33zM203 748q73 0 120.5 -51.5t47.5 -129.5q0 -79 -47.5 -129.5t-120.5 -50.5t-120.5 50.5t-47.5 129.5q0 78 47.5 129.5t120.5 51.5zM203 723q-62 0 -102.5 -44t-40.5 -112q0 -67 40.5 -111t102.5 -44t102.5 44t40.5 111q0 68 -40.5 112 t-102.5 44zM628 349q73 0 120.5 -51.5t47.5 -129.5q0 -79 -47.5 -129.5t-120.5 -50.5q-74 0 -121 50.5t-47 129.5q0 78 47.5 129.5t120.5 51.5zM628 324q-62 0 -102.5 -44t-40.5 -112q0 -67 40.5 -111t102.5 -44t102.5 44t40.5 111q0 68 -40.5 112t-102.5 44z" />
<glyph unicode="&#x26;" horiz-adv-x="651" d="M280 748q60 0 97 -37t37 -99q0 -57 -36 -97.5t-115 -87.5q13 -16 41 -45.5t38 -40.5l145 -161l124 135h38l-144 -155l145 -160h-38l-125 139q-32 -35 -52.5 -54.5t-53 -45t-67.5 -37.5t-74 -12q-87 0 -146 53.5t-59 143.5q0 78 43.5 131.5t145.5 115.5q-76 95 -76 174 q0 65 36 102.5t96 37.5zM322 323q-75 83 -81 90q-96 -58 -137.5 -105.5t-41.5 -120.5q0 -77 51.5 -123.5t126.5 -46.5q36 0 68 11t63 36.5t47.5 42t49.5 52.5zM175 608q0 -75 71 -161q80 47 110.5 82.5t30.5 82.5q0 52 -29 80.5t-78 28.5q-50 0 -77.5 -29t-27.5 -84z" />
<glyph unicode="'" horiz-adv-x="115" d="M50 743l30 -8l-14 -242h-16v250z" />
<glyph unicode="(" horiz-adv-x="245" d="M203 678l17 -18q-140 -162 -140 -371t140 -371l-17 -18q-148 168 -148 389t148 389z" />
<glyph unicode=")" horiz-adv-x="245" d="M42 678q148 -168 148 -389t-148 -389l-17 18q140 162 140 371t-140 371z" />
<glyph unicode="*" horiz-adv-x="383" d="M204 734v-149l141 46l8 -23l-141 -46l87 -120l-20 -15l-87 120l-87 -120l-20 15l87 120l-142 46l8 23l141 -46v149h25z" />
<glyph unicode="+" horiz-adv-x="446" d="M235 528v-165h166v-25h-166v-166h-25v166h-165v25h165v165h25z" />
<glyph unicode="," horiz-adv-x="146" d="M64 64q16 0 26.5 -10.5t10.5 -26.5q0 -8 -3 -17l-39 -134h-4v187q3 1 9 1z" />
<glyph unicode="-" horiz-adv-x="446" d="M401 271v-25h-356v25h356z" />
<glyph unicode="." horiz-adv-x="154" d="M77 64q16 0 26.5 -10.5t10.5 -26.5t-10.5 -26.5t-26.5 -10.5t-26.5 10.5t-10.5 26.5t10.5 26.5t26.5 10.5z" />
<glyph unicode="/" horiz-adv-x="402" d="M397 734l-364 -734h-28l365 734h27z" />
<glyph unicode="0" horiz-adv-x="580" d="M290 748q119 0 182 -101.5t63 -278.5q0 -178 -63 -279.5t-182 -101.5t-182 101.5t-63 279.5q0 177 63 278.5t182 101.5zM290 721q-105 0 -161.5 -94.5t-56.5 -258.5q0 -165 56.5 -259.5t161.5 -94.5t161.5 94.5t56.5 259.5q0 164 -56.5 258.5t-161.5 94.5z" />
<glyph unicode="1" horiz-adv-x="340" d="M248 748v-748h-27v692l-170 -145l-16 22l209 179h4z" />
<glyph unicode="2" horiz-adv-x="524" d="M275 748q85 0 140.5 -55t55.5 -145q0 -75 -24.5 -130t-82.5 -123l-228 -268h349v-27h-402v6l262 309q54 63 76.5 114t22.5 119q0 80 -47.5 126.5t-121.5 46.5q-73 0 -115.5 -35t-59.5 -109l-25 6q37 165 200 165z" />
<glyph unicode="3" horiz-adv-x="524" d="M271 748q82 0 135 -51.5t53 -136.5q0 -127 -120 -166q72 -21 113.5 -72t41.5 -122q0 -96 -58 -154.5t-152 -58.5q-89 0 -140 37.5t-87 108.5l24 12q31 -63 77.5 -97t125.5 -34q81 0 132 51t51 135q0 76 -57 127t-146 51h-84v27h87q68 0 116.5 39t48.5 116q0 73 -45 117 t-116 44q-124 0 -181 -127l-24 11q62 143 205 143z" />
<glyph unicode="4" horiz-adv-x="524" d="M382 735v-524h125v-27h-125v-184h-27v184h-324v4l346 547h5zM355 651l-278 -440h278v440z" />
<glyph unicode="5" horiz-adv-x="524" d="M439 735v-27h-318v-313q69 40 147 40q100 0 159.5 -63.5t59.5 -158.5q0 -94 -59 -160t-155 -66q-87 0 -136 38.5t-83 110.5l25 11q30 -64 73.5 -98.5t120.5 -34.5q83 0 135 57t52 142t-52.5 140t-140.5 55t-167 -57l-6 2v382h345z" />
<glyph unicode="6" horiz-adv-x="524" d="M261 454q94 0 159 -66.5t65 -167.5t-65 -167t-159 -66t-158.5 66t-64.5 167q0 91 54 155l249 360h33l-209 -303q46 22 96 22zM261 427q-82 0 -139 -59t-57 -148t57 -147.5t139 -58.5t139.5 58.5t57.5 147.5t-57.5 148t-139.5 59z" />
<glyph unicode="7" horiz-adv-x="524" d="M493 735v-6l-395 -729h-31l385 708h-421v27h462z" />
<glyph unicode="8" horiz-adv-x="524" d="M256 748q77 0 131 -51.5t54 -129.5q0 -60 -30.5 -106.5t-79.5 -68.5q66 -21 107.5 -74.5t41.5 -122.5q0 -88 -65.5 -148t-158.5 -60t-158 59.5t-65 148.5q0 69 41 122.5t107 74.5q-49 22 -79 68.5t-30 106.5q0 78 53.5 129.5t130.5 51.5zM256 377q-82 0 -139 -52.5 t-57 -129.5t57 -129t139 -52t139.5 52t57.5 129t-57.5 129.5t-139.5 52.5zM256 721q-65 0 -111 -44t-46 -110q0 -70 46 -116.5t111 -46.5q66 0 112 46.5t46 116.5q0 66 -46 110t-112 44z" />
<glyph unicode="9" horiz-adv-x="524" d="M262 748q94 0 158.5 -66t64.5 -167q0 -89 -54 -156l-249 -359h-33l209 302q-44 -21 -96 -21q-94 0 -159 66.5t-65 167.5t65 167t159 66zM262 721q-82 0 -139.5 -58.5t-57.5 -147.5t57.5 -148t139.5 -59t139 59t57 148t-57 147.5t-139 58.5z" />
<glyph unicode=":" horiz-adv-x="154" d="M77 505q16 0 26.5 -10.5t10.5 -26.5t-10.5 -26.5t-26.5 -10.5t-26.5 10.5t-10.5 26.5t10.5 26.5t26.5 10.5zM77 64q16 0 26.5 -10.5t10.5 -26.5t-10.5 -26.5t-26.5 -10.5t-26.5 10.5t-10.5 26.5t10.5 26.5t26.5 10.5z" />
<glyph unicode=";" horiz-adv-x="154" d="M77 505q16 0 26.5 -10.5t10.5 -26.5t-10.5 -26.5t-26.5 -10.5t-26.5 10.5t-10.5 26.5t10.5 26.5t26.5 10.5zM64 64q16 0 26.5 -10.5t10.5 -26.5q0 -8 -3 -17l-39 -134h-4v187q3 1 9 1z" />
<glyph unicode="&#x3c;" horiz-adv-x="307" d="M282 538l-221 -192l221 -192h-37l-220 190v4l220 190h37z" />
<glyph unicode="=" horiz-adv-x="446" d="M401 263v-25h-356v25h356zM401 463v-25h-356v25h356z" />
<glyph unicode="&#x3e;" horiz-adv-x="307" d="M62 538l220 -190v-4l-220 -190h-37l221 192l-221 192h37z" />
<glyph unicode="?" horiz-adv-x="440" d="M216 48q13 0 22 -9t9 -22t-9 -21.5t-22 -8.5t-21.5 8.5t-8.5 21.5t8.5 22t21.5 9zM211 748q82 0 133 -52t51 -136q0 -46 -17 -83.5t-41.5 -63t-49 -48.5t-41.5 -50.5t-17 -57.5v-83h-27v83q0 35 17 65.5t41.5 53.5t49 47.5t41.5 59.5t17 77q0 75 -44.5 118t-112.5 43 t-107 -32.5t-56 -101.5l-25 6q34 155 188 155z" />
<glyph unicode="@" horiz-adv-x="808" d="M404 610q159 0 263 -104.5t104 -262.5q0 -101 -37.5 -160t-104.5 -59q-32 0 -51 17.5t-19 50.5v5q-58 -73 -157 -73q-85 0 -140 61t-55 155q0 95 55 156t140 61q100 0 157 -72v63h24v-356q0 -44 46 -44q57 0 87.5 54.5t30.5 140.5q0 147 -97.5 245t-245.5 98 q-149 0 -246 -97.5t-97 -245.5q0 -149 96.5 -245.5t246.5 -96.5q72 0 134 24l11 -21q-70 -27 -145 -27q-160 0 -263.5 103.5t-103.5 262.5q0 158 103.5 262.5t263.5 104.5zM404 433q-75 0 -124 -54.5t-49 -138.5t49 -138t124 -54q94 0 155 83v219q-62 83 -155 83z" />
<glyph unicode="A" horiz-adv-x="658" d="M331 748l312 -748h-29l-89 214h-392l-89 -214h-29l312 748h4zM329 683l-184 -442h368z" />
<glyph unicode="B" horiz-adv-x="644" d="M319 735q113 0 168 -49.5t55 -136.5q0 -66 -33 -109t-77 -58q78 -13 125.5 -59t47.5 -129q0 -92 -62 -143t-174 -51h-274v735h224zM349 363h-229v-337h249q100 0 155.5 43t55.5 125q0 169 -231 169zM319 709h-199v-320h216q86 0 133.5 44.5t47.5 115.5q0 160 -198 160z " />
<glyph unicode="C" horiz-adv-x="678" d="M397 748q150 0 251 -101l-18 -21q-95 95 -233 95q-145 0 -238.5 -100.5t-93.5 -253.5t93.5 -253t238.5 -100q146 0 241 103l18 -22q-102 -108 -259 -108t-258 107.5t-101 272.5t101 273t258 108z" />
<glyph unicode="D" horiz-adv-x="723" d="M300 735q182 0 283.5 -96.5t101.5 -270.5t-101 -271t-284 -97h-205v735h205zM300 708h-178v-681h178q170 0 264 90t94 251t-94.5 250.5t-263.5 89.5z" />
<glyph unicode="E" horiz-adv-x="554" d="M521 735v-27h-399v-322h355v-27h-355v-332h407v-27h-434v735h426z" />
<glyph unicode="F" horiz-adv-x="516" d="M505 735v-27h-383v-332h332v-27h-332v-349h-27v735h410z" />
<glyph unicode="G" horiz-adv-x="727" d="M397 748q150 0 251 -101l-18 -21q-95 95 -233 95q-145 0 -238.5 -100.5t-93.5 -253.5t96 -253t246 -100q140 0 232 75v232h-230v27h257v-273q-101 -88 -259 -88q-162 0 -265.5 107.5t-103.5 272.5t101 273t258 108z" />
<glyph unicode="H" horiz-adv-x="708" d="M613 735v-735h-27v362h-464v-362h-27v735h27v-346h464v346h27z" />
<glyph unicode="I" horiz-adv-x="217" d="M122 735v-735h-27v735h27z" />
<glyph unicode="J" horiz-adv-x="499" d="M414 735v-539q0 -99 -52.5 -154t-142.5 -55q-84 0 -139 56.5t-55 151.5h27q0 -83 46.5 -132t120.5 -49q78 0 123 47.5t45 134.5v539h27z" />
<glyph unicode="K" horiz-adv-x="608" d="M539 735l-202 -355l259 -380h-32l-243 353l-201 -353h-25v735h27v-679l385 679h32z" />
<glyph unicode="L" horiz-adv-x="541" d="M122 735v-708h404v-27h-431v735h27z" />
<glyph unicode="M" horiz-adv-x="850" d="M755 748v-748h-27v637l-300 -637h-6l-300 637v-637h-27v748h4l326 -691l326 691h4z" />
<glyph unicode="N" horiz-adv-x="718" d="M623 735v-748h-4l-497 684v-671h-27v748h4l497 -682v669h27z" />
<glyph unicode="O" horiz-adv-x="795" d="M397 748q156 0 258 -108t102 -273t-101.5 -272.5t-258.5 -107.5t-258 107.5t-101 272.5t101 273t258 108zM397 721q-145 0 -238.5 -100.5t-93.5 -253.5t93.5 -253t238.5 -100t239 100t94 253t-94.5 253.5t-238.5 100.5z" />
<glyph unicode="P" horiz-adv-x="570" d="M293 735q116 0 183.5 -56t67.5 -161q0 -104 -67 -160t-184 -56h-171v-302h-27v735h198zM293 708h-171v-379h171q104 0 164 49t60 140t-60 140.5t-164 49.5z" />
<glyph unicode="Q" horiz-adv-x="795" d="M397 748q156 0 258 -108t102 -273q0 -100 -39.5 -182t-109.5 -132l145 -170h-37l-131 155q-83 -51 -188 -51q-157 0 -258 107.5t-101 272.5t101 273t258 108zM397 721q-145 0 -238.5 -100.5t-93.5 -253.5t93.5 -253t238.5 -100q94 0 170 45l-134 158l20 18l137 -161 q66 47 103 123.5t37 169.5q0 153 -94.5 253.5t-238.5 100.5z" />
<glyph unicode="R" horiz-adv-x="583" d="M268 735q119 0 188 -55.5t69 -157.5q0 -83 -45.5 -135t-128.5 -70l207 -317h-33l-203 312q-26 -3 -54 -3h-150v-309h-27v735h177zM268 708h-150v-372h150q108 0 169 47.5t61 138.5q0 90 -61.5 138t-168.5 48z" />
<glyph unicode="S" horiz-adv-x="560" d="M267 748q116 0 212 -78l-16 -22q-87 73 -196 73q-83 0 -135.5 -42t-52.5 -125q0 -71 46 -104t162 -60q126 -30 181 -73.5t55 -125.5q0 -91 -65 -147.5t-172 -56.5q-142 0 -245 88l19 22q42 -39 102 -61t124 -22q91 0 151 46.5t60 130.5q0 69 -51.5 108t-165.5 65 q-126 29 -177 69t-51 121q0 92 59 143t156 51z" />
<glyph unicode="T" horiz-adv-x="629" d="M614 735v-27h-286v-708h-27v708h-286v27h599z" />
<glyph unicode="U" horiz-adv-x="682" d="M596 735v-484q0 -124 -65.5 -194t-189.5 -70t-189.5 70t-65.5 194v484h27v-484q0 -111 58.5 -174t169.5 -63t169.5 63t58.5 174v484h27z" />
<glyph unicode="V" horiz-adv-x="708" d="M693 735l-337 -748h-4l-337 748h29l310 -689l310 689h29z" />
<glyph unicode="W" horiz-adv-x="1002" d="M987 735l-271 -748h-4l-211 661l-211 -661h-4l-271 748h30l242 -669l212 669h4l212 -669l242 669h30z" />
<glyph unicode="X" horiz-adv-x="630" d="M601 735l-269 -360l280 -375h-34l-263 352l-263 -352h-34l280 375l-269 360h34l252 -337l252 337h34z" />
<glyph unicode="Y" horiz-adv-x="605" d="M594 734l-278 -408v-326h-27v326l-278 408h33l258 -380l259 380h33z" />
<glyph unicode="Z" horiz-adv-x="560" d="M517 735v-4l-438 -705h450v-26h-494v4l438 705h-421v26h465z" />
<glyph unicode="[" horiz-adv-x="270" d="M245 699v-27h-163v-766h163v-27h-190v820h190z" />
<glyph unicode="\" horiz-adv-x="402" d="M32 734l365 -734h-28l-364 734h27z" />
<glyph unicode="]" horiz-adv-x="281" d="M226 699v-820h-201v27h174v766h-174v27h201z" />
<glyph unicode="^" horiz-adv-x="542" d="M271 760l246 -298h-31l-215 260l-215 -260h-31z" />
<glyph unicode="_" horiz-adv-x="809" d="M764 0v-25h-719v25h719z" />
<glyph unicode="`" horiz-adv-x="237" d="M78 690l144 -109h-39l-148 109h43z" />
<glyph unicode="a" d="M267 505q119 0 187 -85v75h25v-495h-25v77q-70 -87 -187 -87q-101 0 -166.5 72.5t-65.5 184.5q0 113 65.5 185.5t166.5 72.5zM267 480q-90 0 -148.5 -66t-58.5 -167t58.5 -166.5t148.5 -65.5q115 0 187 100v265q-72 100 -187 100z" />
<glyph unicode="b" d="M117 760v-340q68 85 187 85q101 0 166.5 -72.5t65.5 -185.5q0 -112 -65.5 -184.5t-166.5 -72.5q-117 0 -187 87v-77h-25v760h25zM304 480q-115 0 -187 -100v-265q72 -100 187 -100q90 0 148.5 65.5t58.5 166.5t-58.5 167t-148.5 66z" />
<glyph unicode="c" horiz-adv-x="488" d="M274 505q117 0 187 -101l-19 -16q-62 92 -168 92q-103 0 -158.5 -63.5t-55.5 -168.5q0 -104 57 -168.5t160 -64.5q109 0 171 92l19 -16q-70 -101 -190 -101q-115 0 -178.5 71.5t-63.5 186.5t62 186t177 71z" />
<glyph unicode="d" d="M479 760v-760h-25v77q-70 -87 -187 -87q-101 0 -166.5 72.5t-65.5 184.5q0 113 65.5 185.5t166.5 72.5q119 0 187 -85v340h25zM267 480q-90 0 -148.5 -66t-58.5 -167t58.5 -166.5t148.5 -65.5q115 0 187 100v265q-72 100 -187 100z" />
<glyph unicode="e" horiz-adv-x="520" d="M263 505q102 0 162 -70.5t60 -181.5v-15h-425q2 -101 59 -162t158 -61q115 0 181 82l19 -16q-73 -91 -200 -91q-115 0 -178.5 71t-63.5 186q0 113 63 185.5t165 72.5zM263 480q-87 0 -142.5 -60.5t-60.5 -156.5h400q-3 96 -56 156.5t-141 60.5z" />
<glyph unicode="f" horiz-adv-x="314" d="M244 760q59 0 98 -41l-17 -18q-32 34 -81 34q-48 0 -76.5 -35t-28.5 -89v-116h157v-25h-157v-470h-25v470h-93v25h93v116q0 64 35.5 106.5t94.5 42.5z" />
<glyph unicode="g" d="M267 505q119 0 187 -85v75h25v-494q0 -112 -63 -176.5t-168 -64.5q-128 0 -204 99l19 16q71 -90 185 -90q94 0 150 57.5t56 158.5v76q-70 -87 -187 -87q-101 0 -166.5 72.5t-65.5 184.5q0 113 65.5 185.5t166.5 72.5zM267 480q-90 0 -148.5 -66t-58.5 -167t58.5 -166.5 t148.5 -65.5q115 0 187 100v265q-72 100 -187 100z" />
<glyph unicode="h" horiz-adv-x="564" d="M117 760v-343q76 88 181 88q87 0 138 -55.5t51 -146.5v-303h-25v302q0 79 -45 128.5t-119 49.5q-56 0 -97 -25t-84 -77v-378h-25v760h25z" />
<glyph unicode="i" horiz-adv-x="209" d="M117 495v-495h-25v495h25zM105 690q13 0 22 -9t9 -22t-9 -21.5t-22 -8.5t-21.5 8.5t-8.5 21.5t8.5 22t21.5 9z" />
<glyph unicode="j" horiz-adv-x="209" d="M117 495v-596q0 -59 -39.5 -99t-99.5 -40q-68 0 -115 47l18 18q40 -40 97 -40q49 0 81.5 32.5t32.5 81.5v596h25zM105 690q13 0 22 -9t9 -22t-9 -21.5t-22 -8.5t-21.5 8.5t-8.5 21.5t8.5 22t21.5 9z" />
<glyph unicode="k" horiz-adv-x="486" d="M117 760v-712l287 447h29l-151 -234l192 -261h-31l-175 238l-153 -238h-23v760h25z" />
<glyph unicode="l" horiz-adv-x="209" d="M117 760v-760h-25v760h25z" />
<glyph unicode="m" horiz-adv-x="910" d="M293 505q58 0 100 -28.5t64 -78.5q76 107 194 107q83 0 132.5 -56t49.5 -146v-303h-25v302q0 79 -43.5 128.5t-113.5 49.5q-57 0 -100 -27t-85 -83q9 -30 9 -67v-303h-25v302q0 79 -43.5 128.5t-113.5 49.5q-55 0 -96 -24.5t-80 -74.5v-381h-25v495h25v-75q72 85 176 85z " />
<glyph unicode="n" horiz-adv-x="564" d="M298 505q87 0 138 -55.5t51 -146.5v-303h-25v302q0 79 -45 128.5t-119 49.5q-56 0 -97 -25t-84 -77v-378h-25v495h25v-78q76 88 181 88z" />
<glyph unicode="o" horiz-adv-x="556" d="M278 505q105 0 174 -73.5t69 -184.5q0 -112 -68.5 -184.5t-174.5 -72.5t-174.5 72.5t-68.5 184.5q0 111 68.5 184.5t174.5 73.5zM278 480q-95 0 -156.5 -66t-61.5 -167t61.5 -166.5t156.5 -65.5t156.5 65.5t61.5 166.5t-62 167t-156 66z" />
<glyph unicode="p" d="M304 505q101 0 166.5 -72.5t65.5 -184.5q0 -113 -65.5 -185.5t-166.5 -72.5q-119 0 -187 85v-305h-25v725h25v-77q70 87 187 87zM304 480q-115 0 -187 -100v-265q72 -100 187 -100q90 0 148.5 66t58.5 167t-58.5 166.5t-148.5 65.5z" />
<glyph unicode="q" d="M267 505q117 0 187 -87v77h25v-725h-25v305q-68 -85 -187 -85q-101 0 -166.5 72.5t-65.5 185.5q0 112 65.5 184.5t166.5 72.5zM267 480q-90 0 -148.5 -65.5t-58.5 -166.5t58.5 -167t148.5 -66q115 0 187 100v265q-72 100 -187 100z" />
<glyph unicode="r" horiz-adv-x="284" d="M271 505v-26h-4q-90 0 -150 -98v-381h-25v495h25v-75q53 85 154 85z" />
<glyph unicode="s" horiz-adv-x="435" d="M211 505q81 0 150 -53l-15 -20q-60 48 -134 48q-59 0 -94.5 -27t-35.5 -80q0 -45 32 -67t111 -40q89 -20 128.5 -50t39.5 -85q0 -63 -47 -102t-123 -39q-101 0 -177 60l16 20q66 -55 161 -55q64 0 104.5 30.5t40.5 85.5q0 45 -35 69.5t-114 41.5q-89 20 -125.5 48 t-36.5 83q0 63 42.5 97.5t111.5 34.5z" />
<glyph unicode="t" horiz-adv-x="360" d="M148 667v-172h177v-25h-177v-333q0 -59 30.5 -90.5t80.5 -31.5q54 0 81 18l14 -21q-33 -22 -95 -22t-99 38t-37 109v333h-108v25h108v172h25z" />
<glyph unicode="u" horiz-adv-x="550" d="M458 495v-495h-25v75q-76 -85 -181 -85q-81 0 -128 54.5t-47 143.5v307h25v-306q0 -77 41.5 -125.5t108.5 -48.5q60 0 100.5 24t80.5 75v381h25z" />
<glyph unicode="v" horiz-adv-x="492" d="M477 495l-229 -505h-4l-229 505h27l204 -451l204 451h27z" />
<glyph unicode="w" horiz-adv-x="748" d="M733 495l-194 -505h-4l-161 443l-161 -443h-4l-194 505h27l169 -442l161 442h4l161 -442l169 442h27z" />
<glyph unicode="x" horiz-adv-x="451" d="M418 495l-177 -242l185 -253h-31l-170 232l-169 -232h-31l185 253l-177 242h31l161 -221l162 221h31z" />
<glyph unicode="y" horiz-adv-x="512" d="M487 495l-327 -725h-28l110 244l-217 481h27l204 -452l204 452h27z" />
<glyph unicode="z" horiz-adv-x="415" d="M389 495v-4l-320 -466h321v-25h-365v4l319 466h-302v25h347z" />
<glyph unicode="{" horiz-adv-x="326" d="M301 699v-27q-67 0 -108.5 -37t-32.5 -127l10 -103q5 -48 -9.5 -73.5t-52.5 -42.5q38 -17 52.5 -42.5t9.5 -73.5l-10 -103q-9 -90 32.5 -127t108.5 -37v-27q-79 0 -129 45.5t-39 149.5l11 102q6 48 -21 72t-88 39v4q61 15 88 39t21 72l-11 102q-11 104 39 149.5t129 45.5 z" />
<glyph unicode="|" horiz-adv-x="213" d="M120 699v-820h-27v820h27z" />
<glyph unicode="}" horiz-adv-x="326" d="M25 699q79 0 129 -45.5t39 -149.5l-11 -102q-6 -48 21 -72t88 -39v-4q-61 -15 -88 -39t-21 -72l11 -102q11 -104 -39 -149.5t-129 -45.5v27q67 0 108.5 37t32.5 127l-10 103q-5 48 9.5 73.5t52.5 42.5q-38 17 -52.5 42.5t-9.5 73.5l10 103q9 90 -32.5 127t-108.5 37v27z " />
<glyph unicode="~" horiz-adv-x="565" d="M174 414q36 0 66 -15t47.5 -33t44.5 -33t59 -15q84 0 117 91l22 -10q-40 -105 -139 -105q-36 0 -66 15t-47.5 33t-45 33t-58.5 15q-84 0 -117 -91l-22 10q40 105 139 105z" />
<glyph unicode="&#xa1;" horiz-adv-x="215" d="M109 444q-13 0 -22 9t-9 22t9 21.5t22 8.5t21.5 -8.5t8.5 -21.5t-8.5 -22t-21.5 -9zM97 -243v561h25v-561h-25z" />
<glyph unicode="&#xa2;" horiz-adv-x="498" d="M287 634v-130q107 -6 174 -100l-19 -16q-62 92 -168 92q-103 0 -158.5 -63.5t-55.5 -168.5q0 -104 57 -168.5t160 -64.5q109 0 171 92l19 -16q-66 -97 -180 -101v-131h-25v132q-108 5 -167.5 75.5t-59.5 181.5q0 112 59 182.5t168 74.5v129h25z" />
<glyph unicode="&#xa3;" horiz-adv-x="548" d="M326 380v-27h-207q11 -59 11 -102q0 -111 -70 -224h265q71 0 104.5 34.5t33.5 109.5h27q0 -171 -165 -171h-308v4q60 102 77.5 166t0.5 162l-4 21h-68v27h63q-15 68 -15 136q1 113 50.5 172.5t136.5 59.5q65 0 113 -35.5t69 -88.5l-25 -11q-19 49 -59.5 78.5t-97.5 29.5 q-80 0 -120.5 -54.5t-40.5 -146.5q0 -67 16 -140h213z" />
<glyph unicode="&#xa4;" horiz-adv-x="632" d="M316 429q-67 0 -110.5 -47t-43.5 -118t43.5 -117.5t110.5 -46.5t110.5 46.5t43.5 117.5t-43.5 118t-110.5 47zM559 534l18 -18l-126 -125q43 -53 43 -127t-43 -127l126 -125l-18 -18l-125 125q-49 -44 -118 -44t-118 44l-125 -125l-18 18l126 125q-43 53 -43 127t43 127 l-126 125l18 18l125 -125q49 44 118 44t118 -44z" />
<glyph unicode="&#xa5;" horiz-adv-x="605" d="M594 734l-267 -391h152v-25h-163v-99h163v-25h-163v-194h-27v194h-163v25h163v99h-163v25h151l-266 391h33l258 -380l259 380h33z" />
<glyph unicode="&#xa6;" horiz-adv-x="213" d="M120 187v-308h-27v308h27zM120 699v-308h-27v308h27z" />
<glyph unicode="&#xa7;" horiz-adv-x="386" d="M202 748q75 0 124 -43l-16 -19q-43 37 -108 37q-54 0 -89.5 -32t-35.5 -81q0 -81 95 -111q12 -4 43 -9.5t49 -13.5q42 -18 66.5 -57t24.5 -89q0 -54 -29 -95t-77 -56q90 -35 90 -119q0 -64 -47.5 -106t-118.5 -42q-83 0 -138 53l16 19q49 -47 122 -47q60 0 100.5 35 t40.5 88q0 74 -92 103q-12 4 -35 7t-33 6q-53 13 -84.5 54.5t-31.5 99.5q0 55 29 96t79 56q-94 37 -94 128q0 60 41.5 99t108.5 39zM196 465q-58 0 -95.5 -38t-37.5 -97t37.5 -96.5t95.5 -37.5t96 38t38 96q0 59 -38 97t-96 38z" />
<glyph unicode="&#xa8;" horiz-adv-x="251" d="M55 660q13 0 22 -9t9 -22t-9 -21.5t-22 -8.5t-21.5 8.5t-8.5 21.5t8.5 22t21.5 9zM195 660q13 0 22 -9t9 -22t-9 -21.5t-22 -8.5t-21.5 8.5t-8.5 21.5t8.5 22t21.5 9z" />
<glyph unicode="&#xa9;" horiz-adv-x="616" d="M311 642q69 0 115 -46l-17 -17q-39 39 -98 39q-60 0 -99.5 -42.5t-39.5 -106.5q0 -65 39 -107t100 -42q62 0 100 41l18 -16q-46 -49 -118 -49q-71 0 -117 48.5t-46 124.5q0 75 46 124t117 49zM308 760q118 0 195.5 -82.5t77.5 -207.5t-77.5 -207t-195.5 -82 q-120 0 -196.5 81.5t-76.5 207.5q0 125 77 207.5t196 82.5zM308 736q-109 0 -179 -75.5t-70 -190.5t70 -190t179 -75q108 0 178.5 75t70.5 190q0 114 -70.5 190t-178.5 76z" />
<glyph unicode="&#xaa;" horiz-adv-x="416" d="M193 742q82 0 129 -58v51h24v-347h-24v53q-47 -60 -129 -60q-70 0 -116 51t-46 129q0 79 46 130t116 51zM195 719q-61 0 -100 -44.5t-39 -113.5q0 -68 39 -112t100 -44q78 0 126 67v179q-49 68 -126 68z" />
<glyph unicode="&#xab;" horiz-adv-x="414" d="M204 458l-159 -202l159 -202h-31l-158 200v4l158 200h31zM399 458l-159 -202l159 -202h-31l-158 200v4l158 200h31z" />
<glyph unicode="&#xac;" horiz-adv-x="532" d="M494 405v-234h-23v213h-433v21h456z" />
<glyph unicode="&#xae;" horiz-adv-x="616" d="M308 760q118 0 195.5 -82.5t77.5 -207.5t-77.5 -207t-195.5 -82q-120 0 -196.5 81.5t-76.5 207.5q0 125 77 207.5t196 82.5zM308 736q-109 0 -179 -75.5t-70 -190.5t70 -190t179 -75q108 0 178.5 75t70.5 190q0 114 -70.5 190t-178.5 76zM211 638h88q56 0 90 -26t34 -75 q0 -39 -21 -63t-58 -33l95 -142h-29l-91 138q-6 -1 -20 -1h-64v-137h-24v339zM299 614h-64v-154h64q100 0 100 77t-100 77z" />
<glyph unicode="&#xaf;" horiz-adv-x="288" d="M263 628v-25h-238v25h238z" />
<glyph unicode="&#xb0;" horiz-adv-x="312" d="M157 747q52 0 86 -34t34 -86t-34 -85.5t-86 -33.5q-53 0 -87.5 33.5t-34.5 85.5t34.5 86t87.5 34zM157 722q-42 0 -69.5 -27t-27.5 -68t27.5 -67.5t69.5 -26.5q41 0 68 26.5t27 67.5t-27 68t-68 27z" />
<glyph unicode="&#xb1;" horiz-adv-x="446" d="M235 609v-165h166v-25h-166v-166h-25v166h-165v25h165v165h25zM401 158v-25h-356v25h356z" />
<glyph unicode="&#xb2;" horiz-adv-x="346" d="M179 821q53 0 87 -32.5t34 -85.5q0 -41 -14.5 -71.5t-47.5 -68.5l-127 -143h197v-26h-247v4l157 181q30 34 43 61.5t13 62.5q0 43 -27 68t-68 25q-79 0 -99 -78l-24 5q22 98 123 98z" />
<glyph unicode="&#xb3;" horiz-adv-x="345" d="M177 821q51 0 83.5 -31t32.5 -80q0 -70 -69 -94q41 -12 65 -40t24 -67q0 -55 -36 -89t-93 -34q-55 0 -86.5 23t-51.5 67l23 8q18 -35 44 -53.5t71 -18.5t74 27t29 71q0 39 -32 66t-82 27h-50v24h52q38 0 65 21t27 62q0 39 -25.5 62.5t-65.5 23.5q-71 0 -101 -69l-23 11 q35 83 125 83z" />
<glyph unicode="&#xb4;" horiz-adv-x="237" d="M202 690l-148 -109h-39l144 109h43z" />
<glyph unicode="&#xb5;" horiz-adv-x="565" d="M473 495v-495h-25v75q-76 -85 -181 -85t-150 87v-307h-25v725h25v-306q0 -77 41.5 -125.5t108.5 -48.5q60 0 100.5 24t80.5 75v381h25z" />
<glyph unicode="&#xb6;" horiz-adv-x="618" d="M573 735v-26h-98v-819h-26v819h-121v-819h-26v419h-4q-120 0 -196 52.5t-76 155.5q0 106 74.5 162t197.5 56h275z" />
<glyph unicode="&#xb7;" horiz-adv-x="131" d="M65 287q13 0 22 -9t9 -22t-9 -21.5t-22 -8.5t-21.5 8.5t-8.5 21.5t8.5 22t21.5 9z" />
<glyph unicode="&#xb8;" horiz-adv-x="239" d="M104 2l24 -2l-11 -69q42 -2 69.5 -25.5t27.5 -61.5q0 -45 -29 -67.5t-74 -22.5q-58 0 -86 36l16 19q24 -31 70 -31q35 0 57 16t22 50q0 44 -52 59q-21 6 -46 6l-3 3z" />
<glyph unicode="&#xb9;" horiz-adv-x="239" d="M170 821v-427h-26v374l-94 -69l-16 21l134 101h2z" />
<glyph unicode="&#xba;" horiz-adv-x="405" d="M203 742q74 0 122.5 -51.5t48.5 -129.5t-48.5 -129t-122.5 -51q-75 0 -123.5 51t-48.5 129t48.5 129.5t123.5 51.5zM203 719q-64 0 -105.5 -44.5t-41.5 -113.5q0 -68 41.5 -112t105.5 -44q63 0 104.5 44t41.5 112t-41.5 113t-104.5 45z" />
<glyph unicode="&#xbb;" horiz-adv-x="414" d="M241 458l158 -200v-4l-158 -200h-31l159 202l-159 202h31zM46 458l158 -200v-4l-158 -200h-31l159 202l-159 202h31z" />
<glyph unicode="&#xbc;" horiz-adv-x="670" d="M170 721v-427h-26v374l-94 -69l-16 21l134 101h2zM516 734l-364 -734h-28l365 734h27zM573 428v-308h71v-23h-71v-97h-26v97h-195v3l218 328h3zM548 349l-155 -229h155v229z" />
<glyph unicode="&#xbd;" horiz-adv-x="732" d="M170 721v-427h-26v374l-94 -69l-16 21l134 101h2zM516 734l-364 -734h-28l365 734h27zM565 427q53 0 87 -32.5t34 -85.5q0 -41 -14.5 -71.5t-47.5 -68.5l-127 -143h197v-26h-247v4l157 181q30 34 43 61.5t13 62.5q0 43 -27 68t-68 25q-79 0 -99 -78l-24 5q22 98 123 98z " />
<glyph unicode="&#xbe;" horiz-adv-x="776" d="M177 721q51 0 83.5 -31t32.5 -80q0 -70 -69 -94q41 -12 65 -40t24 -67q0 -55 -36 -89t-93 -34q-55 0 -86.5 23t-51.5 67l23 8q18 -35 44 -53.5t71 -18.5t74 27t29 71q0 39 -32 66t-82 27h-50v24h52q38 0 65 21t27 62q0 39 -25.5 62.5t-65.5 23.5q-71 0 -101 -69l-23 11 q35 83 125 83zM622 734l-364 -734h-28l365 734h27zM679 428v-308h71v-23h-71v-97h-26v97h-195v3l218 328h3zM654 349l-155 -229h155v229z" />
<glyph unicode="&#xbf;" horiz-adv-x="440" d="M224 444q-13 0 -22 9t-9 22t9 21.5t22 8.5t21.5 -8.5t8.5 -21.5t-8.5 -22t-21.5 -9zM229 -256q-82 0 -133 52t-51 136q0 46 17 83.5t41.5 63t49 48.5t41.5 50.5t17 57.5v83h27v-83q0 -35 -17 -65.5t-41.5 -53.5t-49 -47.5t-41.5 -59.5t-17 -77q0 -75 44.5 -118t112.5 -43 t107 32.5t56 101.5l25 -6q-34 -155 -188 -155z" />
<glyph unicode="&#xc0;" horiz-adv-x="658" d="M331 748l312 -748h-29l-89 214h-392l-89 -214h-29l312 748h4zM329 683l-184 -442h368zM217 881l144 -109h-39l-148 109h43z" />
<glyph unicode="&#xc1;" horiz-adv-x="658" d="M331 748l312 -748h-29l-89 214h-392l-89 -214h-29l312 748h4zM329 683l-184 -442h368zM481 881l-148 -109h-39l144 109h43z" />
<glyph unicode="&#xc2;" horiz-adv-x="658" d="M331 748l312 -748h-29l-89 214h-392l-89 -214h-29l312 748h4zM329 683l-184 -442h368zM329 901l136 -130h-35l-101 96l-101 -96h-35z" />
<glyph unicode="&#xc3;" horiz-adv-x="658" d="M331 748l312 -748h-29l-89 214h-392l-89 -214h-29l312 748h4zM329 683l-184 -442h368zM263 891q22 0 41 -15t30.5 -32.5t28 -32.5t33.5 -15q54 0 54 88h24q0 -57 -21 -85t-57 -28q-22 0 -41 15t-30.5 32.5t-28 32.5t-33.5 15q-54 0 -54 -88h-24q0 57 21 85t57 28z" />
<glyph unicode="&#xc4;" horiz-adv-x="658" d="M331 748l312 -748h-29l-89 214h-392l-89 -214h-29l312 748h4zM329 683l-184 -442h368zM259 849q13 0 22 -9t9 -22t-9 -21.5t-22 -8.5t-21.5 8.5t-8.5 21.5t8.5 22t21.5 9zM399 849q13 0 22 -9t9 -22t-9 -21.5t-22 -8.5t-21.5 8.5t-8.5 21.5t8.5 22t21.5 9z" />
<glyph unicode="&#xc5;" horiz-adv-x="658" d="M331 748l312 -748h-29l-89 214h-392l-89 -214h-29l312 748h4zM329 683l-184 -442h368zM329 951q39 0 65 -26t26 -64q0 -39 -26 -64t-65 -25t-64.5 25t-25.5 64q0 38 26 64t64 26zM329 927q-28 0 -47 -19t-19 -47t19 -46.5t47 -18.5q29 0 48 18.5t19 46.5t-19.5 47 t-47.5 19z" />
<glyph unicode="&#xc6;" horiz-adv-x="841" d="M808 735v-27h-461l135 -322h282v-27h-271l139 -332h184v-27h-202l-89 214h-392l-89 -214h-29l307 735h486zM329 683l-184 -442h368z" />
<glyph unicode="&#xc7;" horiz-adv-x="678" d="M397 748q150 0 251 -101l-18 -21q-95 95 -233 95q-145 0 -238.5 -100.5t-93.5 -253.5t93.5 -253t238.5 -100q146 0 241 103l18 -22q-102 -108 -259 -108q-3 0 -7 0.5t-6 0.5l-9 -57q42 -2 69.5 -25.5t27.5 -61.5q0 -45 -29 -67.5t-74 -22.5q-58 0 -86 36l16 19 q24 -31 70 -31q35 0 57 16t22 50q0 44 -52 59q-21 6 -46 6l-3 3l13 77q-143 13 -232.5 118t-89.5 260q0 165 101 273t258 108z" />
<glyph unicode="&#xc8;" horiz-adv-x="554" d="M521 735v-27h-399v-322h355v-27h-355v-332h407v-27h-434v735h426zM200 881l144 -109h-39l-148 109h43z" />
<glyph unicode="&#xc9;" horiz-adv-x="554" d="M521 735v-27h-399v-322h355v-27h-355v-332h407v-27h-434v735h426zM464 881l-148 -109h-39l144 109h43z" />
<glyph unicode="&#xca;" horiz-adv-x="554" d="M521 735v-27h-399v-322h355v-27h-355v-332h407v-27h-434v735h426zM312 901l136 -130h-35l-101 96l-101 -96h-35z" />
<glyph unicode="&#xcb;" horiz-adv-x="554" d="M521 735v-27h-399v-322h355v-27h-355v-332h407v-27h-434v735h426zM242 849q13 0 22 -9t9 -22t-9 -21.5t-22 -8.5t-21.5 8.5t-8.5 21.5t8.5 22t21.5 9zM382 849q13 0 22 -9t9 -22t-9 -21.5t-22 -8.5t-21.5 8.5t-8.5 21.5t8.5 22t21.5 9z" />
<glyph unicode="&#xcc;" horiz-adv-x="217" d="M122 735v-735h-27v735h27zM-4 881l144 -109h-39l-148 109h43z" />
<glyph unicode="&#xcd;" horiz-adv-x="217" d="M122 735v-735h-27v735h27zM260 881l-148 -109h-39l144 109h43z" />
<glyph unicode="&#xce;" horiz-adv-x="217" d="M122 735v-735h-27v735h27zM108 901l136 -130h-35l-101 96l-101 -96h-35z" />
<glyph unicode="&#xcf;" horiz-adv-x="217" d="M122 735v-735h-27v735h27zM38 849q13 0 22 -9t9 -22t-9 -21.5t-22 -8.5t-21.5 8.5t-8.5 21.5t8.5 22t21.5 9zM178 849q13 0 22 -9t9 -22t-9 -21.5t-22 -8.5t-21.5 8.5t-8.5 21.5t8.5 22t21.5 9z" />
<glyph unicode="&#xd0;" horiz-adv-x="743" d="M320 735q182 0 283.5 -96.5t101.5 -270.5t-101 -271t-284 -97h-205v363h-93v25h93v347h205zM320 708h-178v-320h132v-25h-132v-336h178q170 0 264 90t94 251t-94.5 250.5t-263.5 89.5z" />
<glyph unicode="&#xd1;" horiz-adv-x="718" d="M623 735v-748h-4l-497 684v-671h-27v748h4l497 -682v669h27zM293 891q22 0 41 -15t30.5 -32.5t28 -32.5t33.5 -15q54 0 54 88h24q0 -57 -21 -85t-57 -28q-22 0 -41 15t-30.5 32.5t-28 32.5t-33.5 15q-54 0 -54 -88h-24q0 57 21 85t57 28z" />
<glyph unicode="&#xd2;" horiz-adv-x="795" d="M397 748q156 0 258 -108t102 -273t-101.5 -272.5t-258.5 -107.5t-258 107.5t-101 272.5t101 273t258 108zM397 721q-145 0 -238.5 -100.5t-93.5 -253.5t93.5 -253t238.5 -100t239 100t94 253t-94.5 253.5t-238.5 100.5zM285 891l144 -109h-39l-148 109h43z" />
<glyph unicode="&#xd3;" horiz-adv-x="795" d="M397 748q156 0 258 -108t102 -273t-101.5 -272.5t-258.5 -107.5t-258 107.5t-101 272.5t101 273t258 108zM397 721q-145 0 -238.5 -100.5t-93.5 -253.5t93.5 -253t238.5 -100t239 100t94 253t-94.5 253.5t-238.5 100.5zM549 891l-148 -109h-39l144 109h43z" />
<glyph unicode="&#xd4;" horiz-adv-x="795" d="M397 748q156 0 258 -108t102 -273t-101.5 -272.5t-258.5 -107.5t-258 107.5t-101 272.5t101 273t258 108zM397 721q-145 0 -238.5 -100.5t-93.5 -253.5t93.5 -253t238.5 -100t239 100t94 253t-94.5 253.5t-238.5 100.5zM397 911l136 -130h-35l-101 96l-101 -96h-35z" />
<glyph unicode="&#xd5;" horiz-adv-x="795" d="M397 748q156 0 258 -108t102 -273t-101.5 -272.5t-258.5 -107.5t-258 107.5t-101 272.5t101 273t258 108zM397 721q-145 0 -238.5 -100.5t-93.5 -253.5t93.5 -253t238.5 -100t239 100t94 253t-94.5 253.5t-238.5 100.5zM331 901q22 0 41 -15t30.5 -32.5t28 -32.5 t33.5 -15q54 0 54 88h24q0 -57 -21 -85t-57 -28q-22 0 -41 15t-30.5 32.5t-28 32.5t-33.5 15q-54 0 -54 -88h-24q0 57 21 85t57 28z" />
<glyph unicode="&#xd6;" horiz-adv-x="795" d="M397 748q156 0 258 -108t102 -273t-101.5 -272.5t-258.5 -107.5t-258 107.5t-101 272.5t101 273t258 108zM397 721q-145 0 -238.5 -100.5t-93.5 -253.5t93.5 -253t238.5 -100t239 100t94 253t-94.5 253.5t-238.5 100.5zM327 859q13 0 22 -9t9 -22t-9 -21.5t-22 -8.5 t-21.5 8.5t-8.5 21.5t8.5 22t21.5 9zM467 859q13 0 22 -9t9 -22t-9 -21.5t-22 -8.5t-21.5 8.5t-8.5 21.5t8.5 22t21.5 9z" />
<glyph unicode="&#xd7;" horiz-adv-x="401" d="M328 495l18 -17l-128 -128l128 -127l-18 -18l-127 128l-128 -128l-18 17l128 128l-127 128l18 17l127 -127z" />
<glyph unicode="&#xd8;" horiz-adv-x="795" d="M397 748q92 0 169 -41l59 108h28l-65 -120q79 -49 124 -135.5t45 -192.5q0 -165 -101.5 -272.5t-258.5 -107.5q-95 0 -170 40l-58 -107h-29l65 120q-78 49 -122.5 134.5t-44.5 192.5q0 165 101 273t258 108zM730 367q0 98 -41.5 178t-113.5 126l-335 -620q71 -37 157 -37 q145 0 239 100t94 253zM397 721q-145 0 -238.5 -100.5t-93.5 -253.5q0 -99 40.5 -178.5t112.5 -124.5l335 619q-73 38 -156 38z" />
<glyph unicode="&#xd9;" horiz-adv-x="682" d="M596 735v-484q0 -124 -65.5 -194t-189.5 -70t-189.5 70t-65.5 194v484h27v-484q0 -111 58.5 -174t169.5 -63t169.5 63t58.5 174v484h27zM229 881l144 -109h-39l-148 109h43z" />
<glyph unicode="&#xda;" horiz-adv-x="682" d="M596 735v-484q0 -124 -65.5 -194t-189.5 -70t-189.5 70t-65.5 194v484h27v-484q0 -111 58.5 -174t169.5 -63t169.5 63t58.5 174v484h27zM493 881l-148 -109h-39l144 109h43z" />
<glyph unicode="&#xdb;" horiz-adv-x="682" d="M596 735v-484q0 -124 -65.5 -194t-189.5 -70t-189.5 70t-65.5 194v484h27v-484q0 -111 58.5 -174t169.5 -63t169.5 63t58.5 174v484h27zM341 901l136 -130h-35l-101 96l-101 -96h-35z" />
<glyph unicode="&#xdc;" horiz-adv-x="682" d="M596 735v-484q0 -124 -65.5 -194t-189.5 -70t-189.5 70t-65.5 194v484h27v-484q0 -111 58.5 -174t169.5 -63t169.5 63t58.5 174v484h27zM271 849q13 0 22 -9t9 -22t-9 -21.5t-22 -8.5t-21.5 8.5t-8.5 21.5t8.5 22t21.5 9zM411 849q13 0 22 -9t9 -22t-9 -21.5t-22 -8.5 t-21.5 8.5t-8.5 21.5t8.5 22t21.5 9z" />
<glyph unicode="&#xdd;" horiz-adv-x="605" d="M594 734l-278 -408v-326h-27v326l-278 408h33l258 -380l259 380h33zM454 881l-148 -109h-39l144 109h43z" />
<glyph unicode="&#xde;" horiz-adv-x="508" d="M122 735v-146h143q88 0 150 -50.5t62 -136.5t-62 -136t-150 -50h-143v-216h-27v735h27zM265 562h-143v-319h143q77 0 131 43t54 116q0 74 -54 117t-131 43z" />
<glyph unicode="&#xdf;" horiz-adv-x="632" d="M298 748q79 0 130.5 -53t51.5 -133q0 -121 -120 -161q30 -6 57.5 -19.5t54 -37t42.5 -61.5t16 -85q0 -94 -57 -152.5t-153 -58.5q-66 0 -115 31l15 25q48 -29 100 -29q80 0 131.5 48.5t51.5 135.5q0 66 -34.5 111t-95.5 63q-56 17 -105 17v21q47 0 91 18q94 38 94 133 q0 72 -45 116t-108 44q-78 0 -122 -42.5t-44 -128.5v-550h-27v550q0 98 52 148t139 50z" />
<glyph unicode="&#xe0;" d="M270 505q119 0 187 -85v75h25v-495h-25v77q-70 -87 -187 -87q-101 0 -166.5 72.5t-65.5 184.5q0 113 65.5 185.5t166.5 72.5zM270 480q-90 0 -148.5 -66t-58.5 -167t58.5 -166.5t148.5 -65.5q115 0 187 100v265q-72 100 -187 100zM178 690l144 -109h-39l-148 109h43z" />
<glyph unicode="&#xe1;" d="M270 505q119 0 187 -85v75h25v-495h-25v77q-70 -87 -187 -87q-101 0 -166.5 72.5t-65.5 184.5q0 113 65.5 185.5t166.5 72.5zM270 480q-90 0 -148.5 -66t-58.5 -167t58.5 -166.5t148.5 -65.5q115 0 187 100v265q-72 100 -187 100zM444 690l-148 -109h-39l144 109h43z" />
<glyph unicode="&#xe2;" d="M270 505q119 0 187 -85v75h25v-495h-25v77q-70 -87 -187 -87q-101 0 -166.5 72.5t-65.5 184.5q0 113 65.5 185.5t166.5 72.5zM270 480q-90 0 -148.5 -66t-58.5 -167t58.5 -166.5t148.5 -65.5q115 0 187 100v265q-72 100 -187 100zM290 708l136 -130h-35l-101 96l-101 -96 h-35z" />
<glyph unicode="&#xe3;" d="M270 505q119 0 187 -85v75h25v-495h-25v77q-70 -87 -187 -87q-101 0 -166.5 72.5t-65.5 184.5q0 113 65.5 185.5t166.5 72.5zM270 480q-90 0 -148.5 -66t-58.5 -167t58.5 -166.5t148.5 -65.5q115 0 187 100v265q-72 100 -187 100zM224 693q22 0 41 -15t30.5 -32.5 t28 -32.5t33.5 -15q54 0 54 88h24q0 -57 -21 -85t-57 -28q-22 0 -41 15t-30.5 32.5t-28 32.5t-33.5 15q-54 0 -54 -88h-24q0 57 21 85t57 28z" />
<glyph unicode="&#xe4;" d="M270 505q119 0 187 -85v75h25v-495h-25v77q-70 -87 -187 -87q-101 0 -166.5 72.5t-65.5 184.5q0 113 65.5 185.5t166.5 72.5zM270 480q-90 0 -148.5 -66t-58.5 -167t58.5 -166.5t148.5 -65.5q115 0 187 100v265q-72 100 -187 100zM220 660q13 0 22 -9t9 -22t-9 -21.5 t-22 -8.5t-21.5 8.5t-8.5 21.5t8.5 22t21.5 9zM360 660q13 0 22 -9t9 -22t-9 -21.5t-22 -8.5t-21.5 8.5t-8.5 21.5t8.5 22t21.5 9z" />
<glyph unicode="&#xe5;" d="M270 505q119 0 187 -85v75h25v-495h-25v77q-70 -87 -187 -87q-101 0 -166.5 72.5t-65.5 184.5q0 113 65.5 185.5t166.5 72.5zM270 480q-90 0 -148.5 -66t-58.5 -167t58.5 -166.5t148.5 -65.5q115 0 187 100v265q-72 100 -187 100zM290 754q39 0 65 -26t26 -64 q0 -39 -26 -64t-65 -25t-64.5 25t-25.5 64q0 38 26 64t64 26zM290 730q-28 0 -47 -19t-19 -47t19 -46.5t47 -18.5q29 0 48 18.5t19 46.5t-19.5 47t-47.5 19z" />
<glyph unicode="&#xe6;" horiz-adv-x="939" d="M682 505q102 0 162 -70.5t60 -181.5v-15h-425q2 -101 59 -162t158 -61q115 0 181 82l19 -16q-73 -91 -200 -91q-79 0 -134 34.5t-83 95.5v-120h-25v77q-70 -87 -187 -87q-101 0 -166.5 72.5t-65.5 184.5q0 113 65.5 185.5t166.5 72.5q119 0 187 -85v75h25v-123 q28 62 80.5 97.5t122.5 35.5zM267 480q-90 0 -148.5 -66t-58.5 -167t58.5 -166.5t148.5 -65.5q115 0 187 100v265q-72 100 -187 100zM682 480q-87 0 -142.5 -60.5t-60.5 -156.5h400q-3 96 -56 156.5t-141 60.5z" />
<glyph unicode="&#xe7;" horiz-adv-x="488" d="M274 505q117 0 187 -101l-19 -16q-62 92 -168 92q-103 0 -158.5 -63.5t-55.5 -168.5q0 -104 57 -168.5t160 -64.5q109 0 171 92l19 -16q-70 -101 -190 -101q-4 0 -11.5 0.5t-10.5 0.5l-9 -60q42 -2 69.5 -25.5t27.5 -61.5q0 -45 -29 -67.5t-74 -22.5q-58 0 -86 36l16 19 q24 -31 70 -31q35 0 57 16t22 50q0 44 -52 59q-21 6 -46 6l-3 3l13 81q-94 14 -145 83t-51 172q0 115 62 186t177 71z" />
<glyph unicode="&#xe8;" horiz-adv-x="520" d="M263 505q102 0 162 -70.5t60 -181.5v-15h-425q2 -101 59 -162t158 -61q115 0 181 82l19 -16q-73 -91 -200 -91q-115 0 -178.5 71t-63.5 186q0 113 63 185.5t165 72.5zM263 480q-87 0 -142.5 -60.5t-60.5 -156.5h400q-3 96 -56 156.5t-141 60.5zM151 690l144 -109h-39 l-148 109h43z" />
<glyph unicode="&#xe9;" horiz-adv-x="520" d="M263 505q102 0 162 -70.5t60 -181.5v-15h-425q2 -101 59 -162t158 -61q115 0 181 82l19 -16q-73 -91 -200 -91q-115 0 -178.5 71t-63.5 186q0 113 63 185.5t165 72.5zM263 480q-87 0 -142.5 -60.5t-60.5 -156.5h400q-3 96 -56 156.5t-141 60.5zM417 690l-148 -109h-39 l144 109h43z" />
<glyph unicode="&#xea;" horiz-adv-x="520" d="M263 505q102 0 162 -70.5t60 -181.5v-15h-425q2 -101 59 -162t158 -61q115 0 181 82l19 -16q-73 -91 -200 -91q-115 0 -178.5 71t-63.5 186q0 113 63 185.5t165 72.5zM263 480q-87 0 -142.5 -60.5t-60.5 -156.5h400q-3 96 -56 156.5t-141 60.5zM263 708l136 -130h-35 l-101 96l-101 -96h-35z" />
<glyph unicode="&#xeb;" horiz-adv-x="520" d="M263 505q102 0 162 -70.5t60 -181.5v-15h-425q2 -101 59 -162t158 -61q115 0 181 82l19 -16q-73 -91 -200 -91q-115 0 -178.5 71t-63.5 186q0 113 63 185.5t165 72.5zM263 480q-87 0 -142.5 -60.5t-60.5 -156.5h400q-3 96 -56 156.5t-141 60.5zM193 660q13 0 22 -9t9 -22 t-9 -21.5t-22 -8.5t-21.5 8.5t-8.5 21.5t8.5 22t21.5 9zM333 660q13 0 22 -9t9 -22t-9 -21.5t-22 -8.5t-21.5 8.5t-8.5 21.5t8.5 22t21.5 9z" />
<glyph unicode="&#xec;" horiz-adv-x="209" d="M117 495v-495h-25v495h25zM-8 690l144 -109h-39l-148 109h43z" />
<glyph unicode="&#xed;" horiz-adv-x="209" d="M117 495v-495h-25v495h25zM258 690l-148 -109h-39l144 109h43z" />
<glyph unicode="&#xee;" horiz-adv-x="209" d="M117 495v-495h-25v495h25zM104 708l136 -130h-35l-101 96l-101 -96h-35z" />
<glyph unicode="&#xef;" horiz-adv-x="209" d="M117 495v-495h-25v495h25zM34 660q13 0 22 -9t9 -22t-9 -21.5t-22 -8.5t-21.5 8.5t-8.5 21.5t8.5 22t21.5 9zM174 660q13 0 22 -9t9 -22t-9 -21.5t-22 -8.5t-21.5 8.5t-8.5 21.5t8.5 22t21.5 9z" />
<glyph unicode="&#xf0;" horiz-adv-x="541" d="M270 482q51 0 99 -21l-111 143h-164v25h144l-102 131h33l102 -131h166v-25h-147l157 -201q59 -69 59 -167q0 -107 -66.5 -176.5t-169.5 -69.5t-169 69.5t-66 176.5q0 106 66.5 176t168.5 70zM270 457q-91 0 -150.5 -63t-59.5 -158q0 -96 59.5 -158.5t150.5 -62.5 q92 0 151.5 62.5t59.5 158.5q0 95 -60 158t-151 63z" />
<glyph unicode="&#xf1;" horiz-adv-x="564" d="M298 505q87 0 138 -55.5t51 -146.5v-303h-25v302q0 79 -45 128.5t-119 49.5q-56 0 -97 -25t-84 -77v-378h-25v495h25v-78q76 88 181 88zM223 693q22 0 41 -15t30.5 -32.5t28 -32.5t33.5 -15q54 0 54 88h24q0 -57 -21 -85t-57 -28q-22 0 -41 15t-30.5 32.5t-28 32.5 t-33.5 15q-54 0 -54 -88h-24q0 57 21 85t57 28z" />
<glyph unicode="&#xf2;" horiz-adv-x="556" d="M278 505q105 0 174 -73.5t69 -184.5q0 -112 -68.5 -184.5t-174.5 -72.5t-174.5 72.5t-68.5 184.5q0 111 68.5 184.5t174.5 73.5zM278 480q-95 0 -156.5 -66t-61.5 -167t61.5 -166.5t156.5 -65.5t156.5 65.5t61.5 166.5t-62 167t-156 66zM166 690l144 -109h-39l-148 109 h43z" />
<glyph unicode="&#xf3;" horiz-adv-x="556" d="M278 505q105 0 174 -73.5t69 -184.5q0 -112 -68.5 -184.5t-174.5 -72.5t-174.5 72.5t-68.5 184.5q0 111 68.5 184.5t174.5 73.5zM278 480q-95 0 -156.5 -66t-61.5 -167t61.5 -166.5t156.5 -65.5t156.5 65.5t61.5 166.5t-62 167t-156 66zM432 690l-148 -109h-39l144 109 h43z" />
<glyph unicode="&#xf4;" horiz-adv-x="556" d="M278 505q105 0 174 -73.5t69 -184.5q0 -112 -68.5 -184.5t-174.5 -72.5t-174.5 72.5t-68.5 184.5q0 111 68.5 184.5t174.5 73.5zM278 480q-95 0 -156.5 -66t-61.5 -167t61.5 -166.5t156.5 -65.5t156.5 65.5t61.5 166.5t-62 167t-156 66zM278 708l136 -130h-35l-101 96 l-101 -96h-35z" />
<glyph unicode="&#xf5;" horiz-adv-x="556" d="M278 505q105 0 174 -73.5t69 -184.5q0 -112 -68.5 -184.5t-174.5 -72.5t-174.5 72.5t-68.5 184.5q0 111 68.5 184.5t174.5 73.5zM278 480q-95 0 -156.5 -66t-61.5 -167t61.5 -166.5t156.5 -65.5t156.5 65.5t61.5 166.5t-62 167t-156 66zM212 693q22 0 41 -15t30.5 -32.5 t28 -32.5t33.5 -15q54 0 54 88h24q0 -57 -21 -85t-57 -28q-22 0 -41 15t-30.5 32.5t-28 32.5t-33.5 15q-54 0 -54 -88h-24q0 57 21 85t57 28z" />
<glyph unicode="&#xf6;" horiz-adv-x="556" d="M278 505q105 0 174 -73.5t69 -184.5q0 -112 -68.5 -184.5t-174.5 -72.5t-174.5 72.5t-68.5 184.5q0 111 68.5 184.5t174.5 73.5zM278 480q-95 0 -156.5 -66t-61.5 -167t61.5 -166.5t156.5 -65.5t156.5 65.5t61.5 166.5t-62 167t-156 66zM208 660q13 0 22 -9t9 -22 t-9 -21.5t-22 -8.5t-21.5 8.5t-8.5 21.5t8.5 22t21.5 9zM348 660q13 0 22 -9t9 -22t-9 -21.5t-22 -8.5t-21.5 8.5t-8.5 21.5t8.5 22t21.5 9z" />
<glyph unicode="&#xf7;" horiz-adv-x="446" d="M223 545q13 0 21.5 -8.5t8.5 -21.5t-8.5 -21.5t-21.5 -8.5t-21.5 8.5t-8.5 21.5t8.5 21.5t21.5 8.5zM223 216q13 0 21.5 -8.5t8.5 -21.5t-8.5 -21.5t-21.5 -8.5t-21.5 8.5t-8.5 21.5t8.5 21.5t21.5 8.5zM401 363v-25h-356v25h356z" />
<glyph unicode="&#xf8;" horiz-adv-x="556" d="M278 505q60 0 112 -27l47 87h28l-54 -99q52 -34 81 -91.5t29 -127.5q0 -112 -68.5 -184.5t-174.5 -72.5q-60 0 -110 25l-46 -85h-29l53 97q-52 33 -81.5 90.5t-29.5 129.5q0 111 68.5 184.5t174.5 73.5zM278 480q-95 0 -156.5 -66t-61.5 -167q0 -65 26 -116.5t72 -81.5 l220 407q-48 24 -100 24zM496 247q0 63 -25.5 114.5t-71.5 81.5l-219 -406q46 -22 98 -22q95 0 156.5 65.5t61.5 166.5z" />
<glyph unicode="&#xf9;" horiz-adv-x="550" d="M458 495v-495h-25v75q-76 -85 -181 -85q-81 0 -128 54.5t-47 143.5v307h25v-306q0 -77 41.5 -125.5t108.5 -48.5q60 0 100.5 24t80.5 75v381h25zM155 690l144 -109h-39l-148 109h43z" />
<glyph unicode="&#xfa;" horiz-adv-x="550" d="M458 495v-495h-25v75q-76 -85 -181 -85q-81 0 -128 54.5t-47 143.5v307h25v-306q0 -77 41.5 -125.5t108.5 -48.5q60 0 100.5 24t80.5 75v381h25zM421 690l-148 -109h-39l144 109h43z" />
<glyph unicode="&#xfb;" horiz-adv-x="550" d="M458 495v-495h-25v75q-76 -85 -181 -85q-81 0 -128 54.5t-47 143.5v307h25v-306q0 -77 41.5 -125.5t108.5 -48.5q60 0 100.5 24t80.5 75v381h25zM267 708l136 -130h-35l-101 96l-101 -96h-35z" />
<glyph unicode="&#xfc;" horiz-adv-x="550" d="M458 495v-495h-25v75q-76 -85 -181 -85q-81 0 -128 54.5t-47 143.5v307h25v-306q0 -77 41.5 -125.5t108.5 -48.5q60 0 100.5 24t80.5 75v381h25zM197 660q13 0 22 -9t9 -22t-9 -21.5t-22 -8.5t-21.5 8.5t-8.5 21.5t8.5 22t21.5 9zM337 660q13 0 22 -9t9 -22t-9 -21.5 t-22 -8.5t-21.5 8.5t-8.5 21.5t8.5 22t21.5 9z" />
<glyph unicode="&#xfd;" horiz-adv-x="512" d="M487 495l-327 -725h-28l110 244l-217 481h27l204 -452l204 452h27zM410 690l-148 -109h-39l144 109h43z" />
<glyph unicode="&#xfe;" d="M117 760v-342q70 87 187 87q101 0 166.5 -72.5t65.5 -184.5q0 -113 -65.5 -185.5t-166.5 -72.5q-119 0 -187 85v-305h-25v990h25zM304 480q-115 0 -187 -100v-265q72 -100 187 -100q90 0 148.5 66t58.5 167t-58.5 166.5t-148.5 65.5z" />
<glyph unicode="&#xff;" horiz-adv-x="512" d="M487 495l-327 -725h-28l110 244l-217 481h27l204 -452l204 452h27zM186 660q13 0 22 -9t9 -22t-9 -21.5t-22 -8.5t-21.5 8.5t-8.5 21.5t8.5 22t21.5 9zM326 660q13 0 22 -9t9 -22t-9 -21.5t-22 -8.5t-21.5 8.5t-8.5 21.5t8.5 22t21.5 9z" />
<glyph unicode="&#x100;" horiz-adv-x="658" d="M331 748l312 -748h-29l-89 214h-392l-89 -214h-29l312 748h4zM329 683l-184 -442h368zM448 818v-25h-238v25h238z" />
<glyph unicode="&#x101;" d="M270 505q119 0 187 -85v75h25v-495h-25v77q-70 -87 -187 -87q-101 0 -166.5 72.5t-65.5 184.5q0 113 65.5 185.5t166.5 72.5zM270 480q-90 0 -148.5 -66t-58.5 -167t58.5 -166.5t148.5 -65.5q115 0 187 100v265q-72 100 -187 100zM409 628v-25h-238v25h238z" />
<glyph unicode="&#x102;" horiz-adv-x="658" d="M331 748l312 -748h-29l-89 214h-392l-89 -214h-29l312 748h4zM329 683l-184 -442h368zM462 897q0 -53 -38 -88t-95 -35t-95 35t-38 88h24q0 -43 31 -71t78 -28t78 28t31 71h24z" />
<glyph unicode="&#x103;" d="M270 505q119 0 187 -85v75h25v-495h-25v77q-70 -87 -187 -87q-101 0 -166.5 72.5t-65.5 184.5q0 113 65.5 185.5t166.5 72.5zM270 480q-90 0 -148.5 -66t-58.5 -167t58.5 -166.5t148.5 -65.5q115 0 187 100v265q-72 100 -187 100zM423 706q0 -53 -38 -88t-95 -35t-95 35 t-38 88h24q0 -43 31 -71t78 -28t78 28t31 71h24z" />
<glyph unicode="&#x104;" horiz-adv-x="658" d="M331 748l312 -748h-8q-51 -21 -51 -76q0 -41 25 -63.5t64 -22.5q22 0 32 5l8 -23q-15 -6 -40 -6q-51 0 -82.5 30.5t-31.5 79.5q0 60 50 88l-84 202h-392l-89 -214h-29l312 748h4zM329 683l-184 -442h368z" />
<glyph unicode="&#x105;" d="M270 505q119 0 187 -85v75h25v-495h-3q-51 -21 -51 -76q0 -41 25 -63.5t64 -22.5q22 0 32 5l8 -23q-15 -6 -40 -6q-51 0 -82.5 30.5t-31.5 79.5q0 62 54 91v62q-70 -87 -187 -87q-101 0 -166.5 72.5t-65.5 184.5q0 113 65.5 185.5t166.5 72.5zM270 480q-90 0 -148.5 -66 t-58.5 -167t58.5 -166.5t148.5 -65.5q115 0 187 100v265q-72 100 -187 100z" />
<glyph unicode="&#x106;" horiz-adv-x="678" d="M397 748q150 0 251 -101l-18 -21q-95 95 -233 95q-145 0 -238.5 -100.5t-93.5 -253.5t93.5 -253t238.5 -100q146 0 241 103l18 -22q-102 -108 -259 -108t-258 107.5t-101 272.5t101 273t258 108zM542 891l-148 -109h-39l144 109h43z" />
<glyph unicode="&#x107;" horiz-adv-x="488" d="M274 505q117 0 187 -101l-19 -16q-62 92 -168 92q-103 0 -158.5 -63.5t-55.5 -168.5q0 -104 57 -168.5t160 -64.5q109 0 171 92l19 -16q-70 -101 -190 -101q-115 0 -178.5 71.5t-63.5 186.5t62 186t177 71zM425 690l-148 -109h-39l144 109h43z" />
<glyph unicode="&#x108;" horiz-adv-x="678" d="M397 748q150 0 251 -101l-18 -21q-95 95 -233 95q-145 0 -238.5 -100.5t-93.5 -253.5t93.5 -253t238.5 -100q146 0 241 103l18 -22q-102 -108 -259 -108t-258 107.5t-101 272.5t101 273t258 108zM390 911l136 -130h-35l-101 96l-101 -96h-35z" />
<glyph unicode="&#x109;" horiz-adv-x="488" d="M274 505q117 0 187 -101l-19 -16q-62 92 -168 92q-103 0 -158.5 -63.5t-55.5 -168.5q0 -104 57 -168.5t160 -64.5q109 0 171 92l19 -16q-70 -101 -190 -101q-115 0 -178.5 71.5t-63.5 186.5t62 186t177 71zM271 708l136 -130h-35l-101 96l-101 -96h-35z" />
<glyph unicode="&#x10a;" horiz-adv-x="678" d="M397 748q150 0 251 -101l-18 -21q-95 95 -233 95q-145 0 -238.5 -100.5t-93.5 -253.5t93.5 -253t238.5 -100q146 0 241 103l18 -22q-102 -108 -259 -108t-258 107.5t-101 272.5t101 273t258 108zM390 846q13 0 22 -9t9 -22t-9 -21.5t-22 -8.5t-21.5 8.5t-8.5 21.5t8.5 22 t21.5 9z" />
<glyph unicode="&#x10b;" horiz-adv-x="488" d="M274 505q117 0 187 -101l-19 -16q-62 92 -168 92q-103 0 -158.5 -63.5t-55.5 -168.5q0 -104 57 -168.5t160 -64.5q109 0 171 92l19 -16q-70 -101 -190 -101q-115 0 -178.5 71.5t-63.5 186.5t62 186t177 71zM271 680q13 0 22 -9t9 -22t-9 -21.5t-22 -8.5t-21.5 8.5 t-8.5 21.5t8.5 22t21.5 9z" />
<glyph unicode="&#x10c;" horiz-adv-x="678" d="M397 748q150 0 251 -101l-18 -21q-95 95 -233 95q-145 0 -238.5 -100.5t-93.5 -253.5t93.5 -253t238.5 -100q146 0 241 103l18 -22q-102 -108 -259 -108t-258 107.5t-101 272.5t101 273t258 108zM526 906l-136 -130l-136 130h35l101 -96l101 96h35z" />
<glyph unicode="&#x10d;" horiz-adv-x="488" d="M274 505q117 0 187 -101l-19 -16q-62 92 -168 92q-103 0 -158.5 -63.5t-55.5 -168.5q0 -104 57 -168.5t160 -64.5q109 0 171 92l19 -16q-70 -101 -190 -101q-115 0 -178.5 71.5t-63.5 186.5t62 186t177 71zM407 708l-136 -130l-136 130h35l101 -96l101 96h35z" />
<glyph unicode="&#x10e;" horiz-adv-x="723" d="M300 735q182 0 283.5 -96.5t101.5 -270.5t-101 -271t-284 -97h-205v735h205zM300 708h-178v-681h178q170 0 264 90t94 251t-94.5 250.5t-263.5 89.5zM476 896l-136 -130l-136 130h35l101 -96l101 96h35z" />
<glyph unicode="&#x10f;" horiz-adv-x="687" d="M479 760v-760h-25v77q-70 -87 -187 -87q-101 0 -166.5 72.5t-65.5 184.5q0 113 65.5 185.5t166.5 72.5q119 0 187 -85v340h25zM267 480q-90 0 -148.5 -66t-58.5 -167t58.5 -166.5t148.5 -65.5q115 0 187 100v265q-72 100 -187 100zM605 742q16 0 26.5 -10.5t10.5 -26.5 q0 -8 -3 -17l-39 -134h-4v187q3 1 9 1z" />
<glyph unicode="&#x110;" horiz-adv-x="743" d="M320 735q182 0 283.5 -96.5t101.5 -270.5t-101 -271t-284 -97h-205v363h-93v25h93v347h205zM320 708h-178v-320h132v-25h-132v-336h178q170 0 264 90t94 251t-94.5 250.5t-263.5 89.5z" />
<glyph unicode="&#x111;" horiz-adv-x="591" d="M479 760v-142h107v-25h-107v-593h-25v77q-70 -87 -187 -87q-101 0 -166.5 72.5t-65.5 184.5q0 113 65.5 185.5t166.5 72.5q119 0 187 -85v173h-120v25h120v142h25zM267 480q-90 0 -148.5 -66t-58.5 -167t58.5 -166.5t148.5 -65.5q115 0 187 100v265q-72 100 -187 100z " />
<glyph unicode="&#x112;" horiz-adv-x="554" d="M521 735v-27h-399v-322h355v-27h-355v-332h407v-27h-434v735h426zM431 818v-25h-238v25h238z" />
<glyph unicode="&#x113;" horiz-adv-x="520" d="M263 505q102 0 162 -70.5t60 -181.5v-15h-425q2 -101 59 -162t158 -61q115 0 181 82l19 -16q-73 -91 -200 -91q-115 0 -178.5 71t-63.5 186q0 113 63 185.5t165 72.5zM263 480q-87 0 -142.5 -60.5t-60.5 -156.5h400q-3 96 -56 156.5t-141 60.5zM382 628v-25h-238v25h238z " />
<glyph unicode="&#x114;" horiz-adv-x="554" d="M521 735v-27h-399v-322h355v-27h-355v-332h407v-27h-434v735h426zM445 897q0 -53 -38 -88t-95 -35t-95 35t-38 88h24q0 -43 31 -71t78 -28t78 28t31 71h24z" />
<glyph unicode="&#x115;" horiz-adv-x="520" d="M263 505q102 0 162 -70.5t60 -181.5v-15h-425q2 -101 59 -162t158 -61q115 0 181 82l19 -16q-73 -91 -200 -91q-115 0 -178.5 71t-63.5 186q0 113 63 185.5t165 72.5zM263 480q-87 0 -142.5 -60.5t-60.5 -156.5h400q-3 96 -56 156.5t-141 60.5zM396 706q0 -53 -38 -88 t-95 -35t-95 35t-38 88h24q0 -43 31 -71t78 -28t78 28t31 71h24z" />
<glyph unicode="&#x116;" horiz-adv-x="554" d="M521 735v-27h-399v-322h355v-27h-355v-332h407v-27h-434v735h426zM312 836q13 0 22 -9t9 -22t-9 -21.5t-22 -8.5t-21.5 8.5t-8.5 21.5t8.5 22t21.5 9z" />
<glyph unicode="&#x117;" horiz-adv-x="520" d="M263 505q102 0 162 -70.5t60 -181.5v-15h-425q2 -101 59 -162t158 -61q115 0 181 82l19 -16q-73 -91 -200 -91q-115 0 -178.5 71t-63.5 186q0 113 63 185.5t165 72.5zM263 480q-87 0 -142.5 -60.5t-60.5 -156.5h400q-3 96 -56 156.5t-141 60.5zM263 680q13 0 22 -9t9 -22 t-9 -21.5t-22 -8.5t-21.5 8.5t-8.5 21.5t8.5 22t21.5 9z" />
<glyph unicode="&#x118;" horiz-adv-x="554" d="M521 735v-27h-399v-322h355v-27h-355v-332h407v-27h-60q-51 -21 -51 -76q0 -41 25 -63.5t64 -22.5q22 0 32 5l8 -23q-15 -6 -40 -6q-51 0 -82.5 30.5t-31.5 79.5q0 47 32 76h-330v735h426z" />
<glyph unicode="&#x119;" horiz-adv-x="520" d="M263 505q102 0 162 -70.5t60 -181.5v-15h-425q2 -101 59 -162t158 -61q115 0 181 82l19 -16q-39 -48 -96 -72q-40 -22 -40 -70q0 -41 25 -63.5t64 -22.5q22 0 32 5l8 -23q-15 -6 -40 -6q-51 0 -82.5 30.5t-31.5 79.5q0 33 15 56q-28 -5 -54 -5q-115 0 -178.5 71 t-63.5 186q0 113 63 185.5t165 72.5zM263 480q-87 0 -142.5 -60.5t-60.5 -156.5h400q-3 96 -56 156.5t-141 60.5z" />
<glyph unicode="&#x11a;" horiz-adv-x="554" d="M521 735v-27h-399v-322h355v-27h-355v-332h407v-27h-434v735h426zM448 896l-136 -130l-136 130h35l101 -96l101 96h35z" />
<glyph unicode="&#x11b;" horiz-adv-x="520" d="M263 505q102 0 162 -70.5t60 -181.5v-15h-425q2 -101 59 -162t158 -61q115 0 181 82l19 -16q-73 -91 -200 -91q-115 0 -178.5 71t-63.5 186q0 113 63 185.5t165 72.5zM263 480q-87 0 -142.5 -60.5t-60.5 -156.5h400q-3 96 -56 156.5t-141 60.5zM399 708l-136 -130 l-136 130h35l101 -96l101 96h35z" />
<glyph unicode="&#x11c;" horiz-adv-x="727" d="M397 748q150 0 251 -101l-18 -21q-95 95 -233 95q-145 0 -238.5 -100.5t-93.5 -253.5t96 -253t246 -100q140 0 232 75v232h-230v27h257v-273q-101 -88 -259 -88q-162 0 -265.5 107.5t-103.5 272.5t101 273t258 108zM392 911l136 -130h-35l-101 96l-101 -96h-35z" />
<glyph unicode="&#x11d;" d="M267 505q119 0 187 -85v75h25v-494q0 -112 -63 -176.5t-168 -64.5q-128 0 -204 99l19 16q71 -90 185 -90q94 0 150 57.5t56 158.5v76q-70 -87 -187 -87q-101 0 -166.5 72.5t-65.5 184.5q0 113 65.5 185.5t166.5 72.5zM267 480q-90 0 -148.5 -66t-58.5 -167t58.5 -166.5 t148.5 -65.5q115 0 187 100v265q-72 100 -187 100zM268 708l136 -130h-35l-101 96l-101 -96h-35z" />
<glyph unicode="&#x11e;" horiz-adv-x="727" d="M397 748q150 0 251 -101l-18 -21q-95 95 -233 95q-145 0 -238.5 -100.5t-93.5 -253.5t96 -253t246 -100q140 0 232 75v232h-230v27h257v-273q-101 -88 -259 -88q-162 0 -265.5 107.5t-103.5 272.5t101 273t258 108zM525 907q0 -53 -38 -88t-95 -35t-95 35t-38 88h24 q0 -43 31 -71t78 -28t78 28t31 71h24z" />
<glyph unicode="&#x11f;" d="M267 505q119 0 187 -85v75h25v-494q0 -112 -63 -176.5t-168 -64.5q-128 0 -204 99l19 16q71 -90 185 -90q94 0 150 57.5t56 158.5v76q-70 -87 -187 -87q-101 0 -166.5 72.5t-65.5 184.5q0 113 65.5 185.5t166.5 72.5zM267 480q-90 0 -148.5 -66t-58.5 -167t58.5 -166.5 t148.5 -65.5q115 0 187 100v265q-72 100 -187 100zM401 706q0 -53 -38 -88t-95 -35t-95 35t-38 88h24q0 -43 31 -71t78 -28t78 28t31 71h24z" />
<glyph unicode="&#x120;" horiz-adv-x="727" d="M397 748q150 0 251 -101l-18 -21q-95 95 -233 95q-145 0 -238.5 -100.5t-93.5 -253.5t96 -253t246 -100q140 0 232 75v232h-230v27h257v-273q-101 -88 -259 -88q-162 0 -265.5 107.5t-103.5 272.5t101 273t258 108zM392 846q13 0 22 -9t9 -22t-9 -21.5t-22 -8.5 t-21.5 8.5t-8.5 21.5t8.5 22t21.5 9z" />
<glyph unicode="&#x121;" d="M267 505q119 0 187 -85v75h25v-494q0 -112 -63 -176.5t-168 -64.5q-128 0 -204 99l19 16q71 -90 185 -90q94 0 150 57.5t56 158.5v76q-70 -87 -187 -87q-101 0 -166.5 72.5t-65.5 184.5q0 113 65.5 185.5t166.5 72.5zM267 480q-90 0 -148.5 -66t-58.5 -167t58.5 -166.5 t148.5 -65.5q115 0 187 100v265q-72 100 -187 100zM268 680q13 0 22 -9t9 -22t-9 -21.5t-22 -8.5t-21.5 8.5t-8.5 21.5t8.5 22t21.5 9z" />
<glyph unicode="&#x122;" horiz-adv-x="727" d="M397 748q150 0 251 -101l-18 -21q-95 95 -233 95q-145 0 -238.5 -100.5t-93.5 -253.5t96 -253t246 -100q140 0 232 75v232h-230v27h257v-273q-101 -88 -259 -88q-162 0 -265.5 107.5t-103.5 272.5t101 273t258 108zM385 -60q16 0 26.5 -10.5t10.5 -26.5q0 -8 -3 -17 l-39 -134h-4v187q3 1 9 1z" />
<glyph unicode="&#x123;" d="M267 505q119 0 187 -85v75h25v-494q0 -112 -63 -176.5t-168 -64.5q-128 0 -204 99l19 16q71 -90 185 -90q94 0 150 57.5t56 158.5v76q-70 -87 -187 -87q-101 0 -166.5 72.5t-65.5 184.5q0 113 65.5 185.5t166.5 72.5zM267 480q-90 0 -148.5 -66t-58.5 -167t58.5 -166.5 t148.5 -65.5q115 0 187 100v265q-72 100 -187 100zM308 750v-187q-3 -1 -9 -1q-16 0 -26.5 10.5t-10.5 26.5q0 8 3 17l39 134h4z" />
<glyph unicode="&#x124;" horiz-adv-x="708" d="M613 735v-735h-27v362h-464v-362h-27v735h27v-346h464v346h27zM354 901l136 -130h-35l-101 96l-101 -96h-35z" />
<glyph unicode="&#x125;" horiz-adv-x="564" d="M117 760v-343q76 88 181 88q87 0 138 -55.5t51 -146.5v-303h-25v302q0 79 -45 128.5t-119 49.5q-56 0 -97 -25t-84 -77v-378h-25v760h25zM106 899l136 -130h-35l-101 96l-101 -96h-35z" />
<glyph unicode="&#x126;" horiz-adv-x="730" d="M717 569v-25h-93v-544h-27v362h-464v-362h-27v544h-93v25h93v166h27v-166h464v166h27v-166h93zM133 389h464v155h-464v-155z" />
<glyph unicode="&#x127;" horiz-adv-x="589" d="M142 760v-142h115v-25h-115v-176q76 88 181 88q87 0 138 -55.5t51 -146.5v-303h-25v302q0 79 -45 128.5t-119 49.5q-56 0 -97 -25t-84 -77v-378h-25v593h-112v25h112v142h25z" />
<glyph unicode="&#x128;" horiz-adv-x="217" d="M122 735v-735h-27v735h27zM42 891q22 0 41 -15t30.5 -32.5t28 -32.5t33.5 -15q54 0 54 88h24q0 -57 -21 -85t-57 -28q-22 0 -41 15t-30.5 32.5t-28 32.5t-33.5 15q-54 0 -54 -88h-24q0 57 21 85t57 28z" />
<glyph unicode="&#x129;" horiz-adv-x="209" d="M117 495v-495h-25v495h25zM38 693q22 0 41 -15t30.5 -32.5t28 -32.5t33.5 -15q54 0 54 88h24q0 -57 -21 -85t-57 -28q-22 0 -41 15t-30.5 32.5t-28 32.5t-33.5 15q-54 0 -54 -88h-24q0 57 21 85t57 28z" />
<glyph unicode="&#x12a;" horiz-adv-x="217" d="M122 735v-735h-27v735h27zM227 818v-25h-238v25h238z" />
<glyph unicode="&#x12b;" horiz-adv-x="209" d="M117 495v-495h-25v495h25zM223 628v-25h-238v25h238z" />
<glyph unicode="&#x12c;" horiz-adv-x="217" d="M122 735v-735h-27v735h27zM241 897q0 -53 -38 -88t-95 -35t-95 35t-38 88h24q0 -43 31 -71t78 -28t78 28t31 71h24z" />
<glyph unicode="&#x12d;" horiz-adv-x="209" d="M117 495v-495h-25v495h25zM237 706q0 -53 -38 -88t-95 -35t-95 35t-38 88h24q0 -43 31 -71t78 -28t78 28t31 71h24z" />
<glyph unicode="&#x12e;" horiz-adv-x="217" d="M122 735v-735h-27v735h27zM79 23l5 -23q-51 -21 -51 -76q0 -41 25 -63.5t64 -22.5q22 0 32 5l8 -23q-15 -6 -40 -6q-51 0 -82.5 30.5t-31.5 79.5q0 71 71 99z" />
<glyph unicode="&#x12f;" horiz-adv-x="209" d="M117 495v-495q-51 -21 -51 -76q0 -41 25 -63.5t64 -22.5q22 0 32 5l8 -23q-15 -6 -40 -6q-51 0 -82.5 30.5t-31.5 79.5q0 61 51 89v482h25zM105 690q13 0 22 -9t9 -22t-9 -21.5t-22 -8.5t-21.5 8.5t-8.5 21.5t8.5 22t21.5 9z" />
<glyph unicode="&#x130;" horiz-adv-x="217" d="M122 735v-735h-27v735h27zM108 836q13 0 22 -9t9 -22t-9 -21.5t-22 -8.5t-21.5 8.5t-8.5 21.5t8.5 22t21.5 9z" />
<glyph unicode="&#x131;" horiz-adv-x="209" d="M117 495v-495h-25v495h25z" />
<glyph unicode="&#x134;" horiz-adv-x="499" d="M414 735v-539q0 -99 -52.5 -154t-142.5 -55q-84 0 -139 56.5t-55 151.5h27q0 -83 46.5 -132t120.5 -49q78 0 123 47.5t45 134.5v539h27zM398 901l136 -130h-35l-101 96l-101 -96h-35z" />
<glyph unicode="&#x135;" horiz-adv-x="209" d="M117 495v-596q0 -59 -39.5 -99t-99.5 -40q-68 0 -115 47l18 18q40 -40 97 -40q49 0 81.5 32.5t32.5 81.5v596h25zM106 708l136 -130h-35l-101 96l-101 -96h-35z" />
<glyph unicode="&#x136;" horiz-adv-x="608" d="M539 735l-202 -355l259 -380h-32l-243 353l-201 -353h-25v735h27v-679l385 679h32zM311 -60q16 0 26.5 -10.5t10.5 -26.5q0 -8 -3 -17l-39 -134h-4v187q3 1 9 1z" />
<glyph unicode="&#x137;" horiz-adv-x="486" d="M117 760v-712l287 447h29l-151 -234l192 -261h-31l-175 238l-153 -238h-23v760h25zM260 -60q16 0 26.5 -10.5t10.5 -26.5q0 -8 -3 -17l-39 -134h-4v187q3 1 9 1z" />
<glyph unicode="&#x139;" horiz-adv-x="541" d="M122 735v-708h404v-27h-431v735h27zM260 881l-148 -109h-39l144 109h43z" />
<glyph unicode="&#x13a;" horiz-adv-x="209" d="M117 760v-760h-25v760h25zM258 900l-148 -109h-39l144 109h43z" />
<glyph unicode="&#x13b;" horiz-adv-x="541" d="M122 735v-708h404v-27h-431v735h27zM299 -60q16 0 26.5 -10.5t10.5 -26.5q0 -8 -3 -17l-39 -134h-4v187q3 1 9 1z" />
<glyph unicode="&#x13c;" horiz-adv-x="209" d="M117 760v-760h-25v760h25zM93 -60q16 0 26.5 -10.5t10.5 -26.5q0 -8 -3 -17l-39 -134h-4v187q3 1 9 1z" />
<glyph unicode="&#x13d;" horiz-adv-x="541" d="M122 735v-708h404v-27h-431v735h27zM452 742q16 0 26.5 -10.5t10.5 -26.5q0 -8 -3 -17l-39 -134h-4v187q3 1 9 1z" />
<glyph unicode="&#x13e;" horiz-adv-x="325" d="M117 760v-760h-25v760h25zM243 742q16 0 26.5 -10.5t10.5 -26.5q0 -8 -3 -17l-39 -134h-4v187q3 1 9 1z" />
<glyph unicode="&#x13f;" horiz-adv-x="541" d="M122 735v-708h404v-27h-431v735h27zM372 329q13 0 22 -9t9 -22t-9 -21.5t-22 -8.5t-21.5 8.5t-8.5 21.5t8.5 22t21.5 9z" />
<glyph unicode="&#x140;" horiz-adv-x="340" d="M117 760v-760h-25v760h25zM274 287q13 0 22 -9t9 -22t-9 -21.5t-22 -8.5t-21.5 8.5t-8.5 21.5t8.5 22t21.5 9z" />
<glyph unicode="&#x141;" horiz-adv-x="561" d="M142 735v-422l125 87l15 -21l-140 -97v-255h404v-27h-431v263l-98 -67l-14 21l112 77v441h27z" />
<glyph unicode="&#x142;" horiz-adv-x="220" d="M123 760v-392l89 58l13 -21l-102 -67v-338h-25v322l-89 -57l-14 21l103 66v408h25z" />
<glyph unicode="&#x143;" horiz-adv-x="718" d="M623 735v-748h-4l-497 684v-671h-27v748h4l497 -682v669h27zM511 881l-148 -109h-39l144 109h43z" />
<glyph unicode="&#x144;" horiz-adv-x="564" d="M298 505q87 0 138 -55.5t51 -146.5v-303h-25v302q0 79 -45 128.5t-119 49.5q-56 0 -97 -25t-84 -77v-378h-25v495h25v-78q76 88 181 88zM443 690l-148 -109h-39l144 109h43z" />
<glyph unicode="&#x145;" horiz-adv-x="718" d="M623 735v-748h-4l-497 684v-671h-27v748h4l497 -682v669h27zM359 -60q16 0 26.5 -10.5t10.5 -26.5q0 -8 -3 -17l-39 -134h-4v187q3 1 9 1z" />
<glyph unicode="&#x146;" horiz-adv-x="564" d="M298 505q87 0 138 -55.5t51 -146.5v-303h-25v302q0 79 -45 128.5t-119 49.5q-56 0 -97 -25t-84 -77v-378h-25v495h25v-78q76 88 181 88zM282 -60q16 0 26.5 -10.5t10.5 -26.5q0 -8 -3 -17l-39 -134h-4v187q3 1 9 1z" />
<glyph unicode="&#x147;" horiz-adv-x="718" d="M623 735v-748h-4l-497 684v-671h-27v748h4l497 -682v669h27zM495 896l-136 -130l-136 130h35l101 -96l101 96h35z" />
<glyph unicode="&#x148;" horiz-adv-x="564" d="M298 505q87 0 138 -55.5t51 -146.5v-303h-25v302q0 79 -45 128.5t-119 49.5q-56 0 -97 -25t-84 -77v-378h-25v495h25v-78q76 88 181 88zM425 708l-136 -130l-136 130h35l101 -96l101 96h35z" />
<glyph unicode="&#x14a;" horiz-adv-x="718" d="M623 735v-766q0 -99 -52.5 -154t-142.5 -55v27q78 0 123 47.5t45 134.5v49l-474 653v-671h-27v748h4l497 -682v669h27z" />
<glyph unicode="&#x14b;" horiz-adv-x="564" d="M298 505q87 0 138 -55.5t51 -146.5v-404q0 -59 -39.5 -99t-99.5 -40v25q49 0 81.5 32.5t32.5 81.5v403q0 79 -45 128.5t-119 49.5q-56 0 -97 -25t-84 -77v-378h-25v495h25v-78q76 88 181 88z" />
<glyph unicode="&#x14c;" horiz-adv-x="795" d="M397 748q156 0 258 -108t102 -273t-101.5 -272.5t-258.5 -107.5t-258 107.5t-101 272.5t101 273t258 108zM397 721q-145 0 -238.5 -100.5t-93.5 -253.5t93.5 -253t238.5 -100t239 100t94 253t-94.5 253.5t-238.5 100.5zM516 828v-25h-238v25h238z" />
<glyph unicode="&#x14d;" horiz-adv-x="556" d="M278 505q105 0 174 -73.5t69 -184.5q0 -112 -68.5 -184.5t-174.5 -72.5t-174.5 72.5t-68.5 184.5q0 111 68.5 184.5t174.5 73.5zM278 480q-95 0 -156.5 -66t-61.5 -167t61.5 -166.5t156.5 -65.5t156.5 65.5t61.5 166.5t-62 167t-156 66zM397 628v-25h-238v25h238z" />
<glyph unicode="&#x14e;" horiz-adv-x="795" d="M397 748q156 0 258 -108t102 -273t-101.5 -272.5t-258.5 -107.5t-258 107.5t-101 272.5t101 273t258 108zM397 721q-145 0 -238.5 -100.5t-93.5 -253.5t93.5 -253t238.5 -100t239 100t94 253t-94.5 253.5t-238.5 100.5zM530 907q0 -53 -38 -88t-95 -35t-95 35t-38 88h24 q0 -43 31 -71t78 -28t78 28t31 71h24z" />
<glyph unicode="&#x14f;" horiz-adv-x="556" d="M278 505q105 0 174 -73.5t69 -184.5q0 -112 -68.5 -184.5t-174.5 -72.5t-174.5 72.5t-68.5 184.5q0 111 68.5 184.5t174.5 73.5zM278 480q-95 0 -156.5 -66t-61.5 -167t61.5 -166.5t156.5 -65.5t156.5 65.5t61.5 166.5t-62 167t-156 66zM411 706q0 -53 -38 -88t-95 -35 t-95 35t-38 88h24q0 -43 31 -71t78 -28t78 28t31 71h24z" />
<glyph unicode="&#x150;" horiz-adv-x="795" d="M397 748q156 0 258 -108t102 -273t-101.5 -272.5t-258.5 -107.5t-258 107.5t-101 272.5t101 273t258 108zM397 721q-145 0 -238.5 -100.5t-93.5 -253.5t93.5 -253t238.5 -100t239 100t94 253t-94.5 253.5t-238.5 100.5zM453 901l-123 -115h-24l111 115h36zM589 901 l-123 -115h-24l111 115h36z" />
<glyph unicode="&#x151;" horiz-adv-x="556" d="M278 505q105 0 174 -73.5t69 -184.5q0 -112 -68.5 -184.5t-174.5 -72.5t-174.5 72.5t-68.5 184.5q0 111 68.5 184.5t174.5 73.5zM278 480q-95 0 -156.5 -66t-61.5 -167t61.5 -166.5t156.5 -65.5t156.5 65.5t61.5 166.5t-62 167t-156 66zM334 706l-123 -135h-24l111 135 h36zM470 706l-123 -135h-24l111 135h36z" />
<glyph unicode="&#x152;" horiz-adv-x="1179" d="M1156 735v-27h-399v-322h355v-27h-355v-332h407v-27h-434v215q-40 -105 -128.5 -166.5t-204.5 -61.5q-157 0 -258 107.5t-101 272.5t101 273t258 108q116 0 204.5 -62t128.5 -167v216h426zM397 721q-145 0 -238.5 -100.5t-93.5 -253.5t93.5 -253t238.5 -100t239 100 t94 253t-94.5 253.5t-238.5 100.5z" />
<glyph unicode="&#x153;" horiz-adv-x="981" d="M724 505q102 0 162 -70.5t60 -181.5v-15h-425q2 -101 59 -162t158 -61q115 0 181 82l19 -16q-73 -91 -200 -91q-91 0 -150 44.5t-81 122.5q-24 -76 -85.5 -121.5t-143.5 -45.5q-106 0 -174.5 72.5t-68.5 184.5q0 111 68.5 184.5t174.5 73.5q82 0 144 -46.5t86 -123.5 q22 78 79 124t137 46zM278 480q-95 0 -156.5 -66t-61.5 -167t61.5 -166.5t156.5 -65.5t156.5 65.5t61.5 166.5v10q-4 97 -65 160t-153 63zM724 480q-87 0 -142.5 -60.5t-60.5 -156.5h400q-3 96 -56 156.5t-141 60.5z" />
<glyph unicode="&#x154;" horiz-adv-x="583" d="M268 735q119 0 188 -55.5t69 -157.5q0 -83 -45.5 -135t-128.5 -70l207 -317h-33l-203 312q-26 -3 -54 -3h-150v-309h-27v735h177zM268 708h-150v-372h150q108 0 169 47.5t61 138.5q0 90 -61.5 138t-168.5 48zM435 881l-148 -109h-39l144 109h43z" />
<glyph unicode="&#x155;" horiz-adv-x="284" d="M271 505v-26h-4q-90 0 -150 -98v-381h-25v495h25v-75q53 85 154 85zM335 690l-148 -109h-39l144 109h43z" />
<glyph unicode="&#x156;" horiz-adv-x="583" d="M268 735q119 0 188 -55.5t69 -157.5q0 -83 -45.5 -135t-128.5 -70l207 -317h-33l-203 312q-26 -3 -54 -3h-150v-309h-27v735h177zM268 708h-150v-372h150q108 0 169 47.5t61 138.5q0 90 -61.5 138t-168.5 48zM277 -60q16 0 26.5 -10.5t10.5 -26.5q0 -8 -3 -17l-39 -134 h-4v187q3 1 9 1z" />
<glyph unicode="&#x157;" horiz-adv-x="284" d="M271 505v-26h-4q-90 0 -150 -98v-381h-25v495h25v-75q53 85 154 85zM94 -60q16 0 26.5 -10.5t10.5 -26.5q0 -8 -3 -17l-39 -134h-4v187q3 1 9 1z" />
<glyph unicode="&#x158;" horiz-adv-x="583" d="M268 735q119 0 188 -55.5t69 -157.5q0 -83 -45.5 -135t-128.5 -70l207 -317h-33l-203 312q-26 -3 -54 -3h-150v-309h-27v735h177zM268 708h-150v-372h150q108 0 169 47.5t61 138.5q0 90 -61.5 138t-168.5 48zM419 896l-136 -130l-136 130h35l101 -96l101 96h35z" />
<glyph unicode="&#x159;" horiz-adv-x="284" d="M271 505v-26h-4q-90 0 -150 -98v-381h-25v495h25v-75q53 85 154 85zM317 708l-136 -130l-136 130h35l101 -96l101 96h35z" />
<glyph unicode="&#x15a;" horiz-adv-x="560" d="M267 748q116 0 212 -78l-16 -22q-87 73 -196 73q-83 0 -135.5 -42t-52.5 -125q0 -71 46 -104t162 -60q126 -30 181 -73.5t55 -125.5q0 -91 -65 -147.5t-172 -56.5q-142 0 -245 88l19 22q42 -39 102 -61t124 -22q91 0 151 46.5t60 130.5q0 69 -51.5 108t-165.5 65 q-126 29 -177 69t-51 121q0 92 59 143t156 51zM425 891l-148 -109h-39l144 109h43z" />
<glyph unicode="&#x15b;" horiz-adv-x="435" d="M211 505q81 0 150 -53l-15 -20q-60 48 -134 48q-59 0 -94.5 -27t-35.5 -80q0 -45 32 -67t111 -40q89 -20 128.5 -50t39.5 -85q0 -63 -47 -102t-123 -39q-101 0 -177 60l16 20q66 -55 161 -55q64 0 104.5 30.5t40.5 85.5q0 45 -35 69.5t-114 41.5q-89 20 -125.5 48 t-36.5 83q0 63 42.5 97.5t111.5 34.5zM367 690l-148 -109h-39l144 109h43z" />
<glyph unicode="&#x15c;" horiz-adv-x="560" d="M267 748q116 0 212 -78l-16 -22q-87 73 -196 73q-83 0 -135.5 -42t-52.5 -125q0 -71 46 -104t162 -60q126 -30 181 -73.5t55 -125.5q0 -91 -65 -147.5t-172 -56.5q-142 0 -245 88l19 22q42 -39 102 -61t124 -22q91 0 151 46.5t60 130.5q0 69 -51.5 108t-165.5 65 q-126 29 -177 69t-51 121q0 92 59 143t156 51zM273 911l136 -130h-35l-101 96l-101 -96h-35z" />
<glyph unicode="&#x15d;" horiz-adv-x="435" d="M211 505q81 0 150 -53l-15 -20q-60 48 -134 48q-59 0 -94.5 -27t-35.5 -80q0 -45 32 -67t111 -40q89 -20 128.5 -50t39.5 -85q0 -63 -47 -102t-123 -39q-101 0 -177 60l16 20q66 -55 161 -55q64 0 104.5 30.5t40.5 85.5q0 45 -35 69.5t-114 41.5q-89 20 -125.5 48 t-36.5 83q0 63 42.5 97.5t111.5 34.5zM213 708l136 -130h-35l-101 96l-101 -96h-35z" />
<glyph unicode="&#x15e;" horiz-adv-x="560" d="M267 748q116 0 212 -78l-16 -22q-87 73 -196 73q-83 0 -135.5 -42t-52.5 -125q0 -71 46 -104t162 -60q126 -30 181 -73.5t55 -125.5q0 -88 -61.5 -144t-162.5 -60l-9 -56q42 -2 69.5 -25.5t27.5 -61.5q0 -45 -29 -67.5t-74 -22.5q-58 0 -86 36l16 19q24 -31 70 -31 q35 0 57 16t22 50q0 44 -52 59q-21 6 -46 6l-3 3l12 75q-136 4 -233 88l19 22q42 -39 102 -61t124 -22q91 0 151 46.5t60 130.5q0 69 -51.5 108t-165.5 65q-126 29 -177 69t-51 121q0 92 59 143t156 51z" />
<glyph unicode="&#x15f;" horiz-adv-x="435" d="M211 505q81 0 150 -53l-15 -20q-60 48 -134 48q-59 0 -94.5 -27t-35.5 -80q0 -45 32 -67t111 -40q89 -20 128.5 -50t39.5 -85q0 -63 -47 -101.5t-122 -39.5l-9 -59q42 -2 69.5 -25.5t27.5 -61.5q0 -45 -29 -67.5t-74 -22.5q-58 0 -86 36l16 19q24 -31 70 -31q35 0 57 16 t22 50q0 44 -52 59q-21 6 -46 6l-3 3l13 79q-86 5 -154 59l16 20q66 -55 161 -55q64 0 104.5 30.5t40.5 85.5q0 45 -35 69.5t-114 41.5q-89 20 -125.5 48t-36.5 83q0 63 42.5 97.5t111.5 34.5z" />
<glyph unicode="&#x160;" horiz-adv-x="560" d="M267 748q116 0 212 -78l-16 -22q-87 73 -196 73q-83 0 -135.5 -42t-52.5 -125q0 -71 46 -104t162 -60q126 -30 181 -73.5t55 -125.5q0 -91 -65 -147.5t-172 -56.5q-142 0 -245 88l19 22q42 -39 102 -61t124 -22q91 0 151 46.5t60 130.5q0 69 -51.5 108t-165.5 65 q-126 29 -177 69t-51 121q0 92 59 143t156 51zM409 906l-136 -130l-136 130h35l101 -96l101 96h35z" />
<glyph unicode="&#x161;" horiz-adv-x="435" d="M211 505q81 0 150 -53l-15 -20q-60 48 -134 48q-59 0 -94.5 -27t-35.5 -80q0 -45 32 -67t111 -40q89 -20 128.5 -50t39.5 -85q0 -63 -47 -102t-123 -39q-101 0 -177 60l16 20q66 -55 161 -55q64 0 104.5 30.5t40.5 85.5q0 45 -35 69.5t-114 41.5q-89 20 -125.5 48 t-36.5 83q0 63 42.5 97.5t111.5 34.5zM349 708l-136 -130l-136 130h35l101 -96l101 96h35z" />
<glyph unicode="&#x162;" horiz-adv-x="629" d="M614 735v-27h-286v-708h-27v708h-286v27h599zM304 -60q16 0 26.5 -10.5t10.5 -26.5q0 -8 -3 -17l-39 -134h-4v187q3 1 9 1z" />
<glyph unicode="&#x163;" horiz-adv-x="360" d="M148 667v-172h177v-25h-177v-333q0 -59 30.5 -90.5t80.5 -31.5q54 0 81 18l14 -21q-33 -22 -95 -22t-99 38t-37 109v333h-108v25h108v172h25zM166 -60q16 0 26.5 -10.5t10.5 -26.5q0 -8 -3 -17l-39 -134h-4v187q3 1 9 1z" />
<glyph unicode="&#x164;" horiz-adv-x="629" d="M614 735v-27h-286v-708h-27v708h-286v27h599zM450 896l-136 -130l-136 130h35l101 -96l101 96h35z" />
<glyph unicode="&#x165;" horiz-adv-x="471" d="M148 667v-172h177v-25h-177v-333q0 -59 30.5 -90.5t80.5 -31.5q54 0 81 18l14 -21q-33 -22 -95 -22t-99 38t-37 109v333h-108v25h108v172h25zM389 742q16 0 26.5 -10.5t10.5 -26.5q0 -8 -3 -17l-39 -134h-4v187q3 1 9 1z" />
<glyph unicode="&#x166;" horiz-adv-x="629" d="M614 735v-27h-286v-331h165v-25h-165v-352h-27v352h-163v25h163v331h-286v27h599z" />
<glyph unicode="&#x167;" horiz-adv-x="360" d="M148 667v-172h177v-25h-177v-151h177v-25h-177v-157q0 -59 30.5 -90.5t80.5 -31.5q54 0 81 18l14 -21q-33 -22 -95 -22t-99 38t-37 109v157h-108v25h108v151h-108v25h108v172h25z" />
<glyph unicode="&#x168;" horiz-adv-x="682" d="M596 735v-484q0 -124 -65.5 -194t-189.5 -70t-189.5 70t-65.5 194v484h27v-484q0 -111 58.5 -174t169.5 -63t169.5 63t58.5 174v484h27zM275 891q22 0 41 -15t30.5 -32.5t28 -32.5t33.5 -15q54 0 54 88h24q0 -57 -21 -85t-57 -28q-22 0 -41 15t-30.5 32.5t-28 32.5 t-33.5 15q-54 0 -54 -88h-24q0 57 21 85t57 28z" />
<glyph unicode="&#x169;" horiz-adv-x="550" d="M458 495v-495h-25v75q-76 -85 -181 -85q-81 0 -128 54.5t-47 143.5v307h25v-306q0 -77 41.5 -125.5t108.5 -48.5q60 0 100.5 24t80.5 75v381h25zM201 693q22 0 41 -15t30.5 -32.5t28 -32.5t33.5 -15q54 0 54 88h24q0 -57 -21 -85t-57 -28q-22 0 -41 15t-30.5 32.5 t-28 32.5t-33.5 15q-54 0 -54 -88h-24q0 57 21 85t57 28z" />
<glyph unicode="&#x16a;" horiz-adv-x="682" d="M596 735v-484q0 -124 -65.5 -194t-189.5 -70t-189.5 70t-65.5 194v484h27v-484q0 -111 58.5 -174t169.5 -63t169.5 63t58.5 174v484h27zM460 818v-25h-238v25h238z" />
<glyph unicode="&#x16b;" horiz-adv-x="550" d="M458 495v-495h-25v75q-76 -85 -181 -85q-81 0 -128 54.5t-47 143.5v307h25v-306q0 -77 41.5 -125.5t108.5 -48.5q60 0 100.5 24t80.5 75v381h25zM386 628v-25h-238v25h238z" />
<glyph unicode="&#x16c;" horiz-adv-x="682" d="M596 735v-484q0 -124 -65.5 -194t-189.5 -70t-189.5 70t-65.5 194v484h27v-484q0 -111 58.5 -174t169.5 -63t169.5 63t58.5 174v484h27zM474 897q0 -53 -38 -88t-95 -35t-95 35t-38 88h24q0 -43 31 -71t78 -28t78 28t31 71h24z" />
<glyph unicode="&#x16d;" horiz-adv-x="550" d="M458 495v-495h-25v75q-76 -85 -181 -85q-81 0 -128 54.5t-47 143.5v307h25v-306q0 -77 41.5 -125.5t108.5 -48.5q60 0 100.5 24t80.5 75v381h25zM400 706q0 -53 -38 -88t-95 -35t-95 35t-38 88h24q0 -43 31 -71t78 -28t78 28t31 71h24z" />
<glyph unicode="&#x16e;" horiz-adv-x="682" d="M596 735v-484q0 -124 -65.5 -194t-189.5 -70t-189.5 70t-65.5 194v484h27v-484q0 -111 58.5 -174t169.5 -63t169.5 63t58.5 174v484h27zM341 951q39 0 65 -26t26 -64q0 -39 -26 -64t-65 -25t-64.5 25t-25.5 64q0 38 26 64t64 26zM341 927q-28 0 -47 -19t-19 -47t19 -46.5 t47 -18.5q29 0 48 18.5t19 46.5t-19.5 47t-47.5 19z" />
<glyph unicode="&#x16f;" horiz-adv-x="550" d="M458 495v-495h-25v75q-76 -85 -181 -85q-81 0 -128 54.5t-47 143.5v307h25v-306q0 -77 41.5 -125.5t108.5 -48.5q60 0 100.5 24t80.5 75v381h25zM267 754q39 0 65 -26t26 -64q0 -39 -26 -64t-65 -25t-64.5 25t-25.5 64q0 38 26 64t64 26zM267 730q-28 0 -47 -19t-19 -47 t19 -46.5t47 -18.5q29 0 48 18.5t19 46.5t-19.5 47t-47.5 19z" />
<glyph unicode="&#x170;" horiz-adv-x="682" d="M596 735v-484q0 -124 -65.5 -194t-189.5 -70t-189.5 70t-65.5 194v484h27v-484q0 -111 58.5 -174t169.5 -63t169.5 63t58.5 174v484h27zM397 891l-123 -115h-24l111 115h36zM533 891l-123 -115h-24l111 115h36z" />
<glyph unicode="&#x171;" horiz-adv-x="550" d="M458 495v-495h-25v75q-76 -85 -181 -85q-81 0 -128 54.5t-47 143.5v307h25v-306q0 -77 41.5 -125.5t108.5 -48.5q60 0 100.5 24t80.5 75v381h25zM323 706l-123 -135h-24l111 135h36zM459 706l-123 -135h-24l111 135h36z" />
<glyph unicode="&#x172;" horiz-adv-x="682" d="M596 735v-484q0 -97 -41 -162t-120 -89q-42 -23 -42 -72q0 -41 25 -63.5t64 -22.5q22 0 32 5l8 -23q-15 -6 -40 -6q-51 0 -82.5 30.5t-31.5 79.5q0 37 19 62q-21 -3 -46 -3q-124 0 -189.5 70t-65.5 194v484h27v-484q0 -111 58.5 -174t169.5 -63t169.5 63t58.5 174v484h27 z" />
<glyph unicode="&#x173;" horiz-adv-x="550" d="M458 495v-495q-51 -21 -51 -76q0 -41 25 -63.5t64 -22.5q22 0 32 5l8 -23q-15 -6 -40 -6q-51 0 -82.5 30.5t-31.5 79.5q0 61 51 89v62q-76 -85 -181 -85q-81 0 -128 54.5t-47 143.5v307h25v-306q0 -77 41.5 -125.5t108.5 -48.5q60 0 100.5 24t80.5 75v381h25z" />
<glyph unicode="&#x174;" horiz-adv-x="1002" d="M987 735l-271 -748h-4l-211 661l-211 -661h-4l-271 748h30l242 -669l212 669h4l212 -669l242 669h30zM501 901l136 -130h-35l-101 96l-101 -96h-35z" />
<glyph unicode="&#x175;" horiz-adv-x="748" d="M733 495l-194 -505h-4l-161 443l-161 -443h-4l-194 505h27l169 -442l161 442h4l161 -442l169 442h27zM374 708l136 -130h-35l-101 96l-101 -96h-35z" />
<glyph unicode="&#x176;" horiz-adv-x="605" d="M594 734l-278 -408v-326h-27v326l-278 408h33l258 -380l259 380h33zM302 901l136 -130h-35l-101 96l-101 -96h-35z" />
<glyph unicode="&#x177;" horiz-adv-x="512" d="M487 495l-327 -725h-28l110 244l-217 481h27l204 -452l204 452h27zM256 708l136 -130h-35l-101 96l-101 -96h-35z" />
<glyph unicode="&#x178;" horiz-adv-x="605" d="M594 734l-278 -408v-326h-27v326l-278 408h33l258 -380l259 380h33zM232 849q13 0 22 -9t9 -22t-9 -21.5t-22 -8.5t-21.5 8.5t-8.5 21.5t8.5 22t21.5 9zM372 849q13 0 22 -9t9 -22t-9 -21.5t-22 -8.5t-21.5 8.5t-8.5 21.5t8.5 22t21.5 9z" />
<glyph unicode="&#x179;" horiz-adv-x="560" d="M517 735v-4l-438 -705h450v-26h-494v4l438 705h-421v26h465zM434 881l-148 -109h-39l144 109h43z" />
<glyph unicode="&#x17a;" horiz-adv-x="415" d="M389 495v-4l-320 -466h321v-25h-365v4l319 466h-302v25h347zM361 690l-148 -109h-39l144 109h43z" />
<glyph unicode="&#x17b;" horiz-adv-x="560" d="M517 735v-4l-438 -705h450v-26h-494v4l438 705h-421v26h465zM282 836q13 0 22 -9t9 -22t-9 -21.5t-22 -8.5t-21.5 8.5t-8.5 21.5t8.5 22t21.5 9z" />
<glyph unicode="&#x17c;" horiz-adv-x="415" d="M389 495v-4l-320 -466h321v-25h-365v4l319 466h-302v25h347zM207 680q13 0 22 -9t9 -22t-9 -21.5t-22 -8.5t-21.5 8.5t-8.5 21.5t8.5 22t21.5 9z" />
<glyph unicode="&#x17d;" horiz-adv-x="560" d="M517 735v-4l-438 -705h450v-26h-494v4l438 705h-421v26h465zM418 896l-136 -130l-136 130h35l101 -96l101 96h35z" />
<glyph unicode="&#x17e;" horiz-adv-x="415" d="M389 495v-4l-320 -466h321v-25h-365v4l319 466h-302v25h347zM343 708l-136 -130l-136 130h35l101 -96l101 96h35z" />
<glyph unicode="&#x192;" horiz-adv-x="315" d="M279 748q59 0 98 -41l-17 -18q-32 34 -81 34q-47 0 -76.5 -34.5t-35.5 -92.5l-10 -101h111l-3 -25h-111l-62 -561q-7 -66 -43.5 -107.5t-94.5 -41.5q-59 0 -98 41l17 18q32 -34 81 -34q47 0 76.5 34.5t35.5 92.5l61 558h-78l3 25h78l11 104q7 66 43.5 107.5t94.5 41.5z " />
<glyph unicode="&#x1fa;" horiz-adv-x="658" d="M331 748l312 -748h-29l-89 214h-392l-89 -214h-29l312 748h4zM329 683l-184 -442h368zM451 1041l-124 -91h2q39 0 65 -26t26 -64q0 -39 -26 -64t-65 -25t-64.5 25t-25.5 64q0 47 35 72h-10l144 109h43zM329 926q-28 0 -47 -19t-19 -47t19 -46.5t47 -18.5q29 0 48 18.5 t19 46.5t-19.5 47t-47.5 19z" />
<glyph unicode="&#x1fb;" d="M270 505q119 0 187 -85v75h25v-495h-25v77q-70 -87 -187 -87q-101 0 -166.5 72.5t-65.5 184.5q0 113 65.5 185.5t166.5 72.5zM270 480q-90 0 -148.5 -66t-58.5 -167t58.5 -166.5t148.5 -65.5q115 0 187 100v265q-72 100 -187 100zM397 825l-116 -85q39 0 65 -26t26 -64 q0 -39 -26 -64t-65 -25t-64.5 25t-25.5 64q0 41 28 66h-9l144 109h43zM281 716q-28 0 -47 -19t-19 -47t19 -46.5t47 -18.5q29 0 48 18.5t19 46.5t-19.5 47t-47.5 19z" />
<glyph unicode="&#x1fc;" horiz-adv-x="841" d="M808 735v-27h-461l135 -322h282v-27h-271l139 -332h184v-27h-202l-89 214h-392l-89 -214h-29l307 735h486zM329 683l-184 -442h368zM637 881l-148 -109h-39l144 109h43z" />
<glyph unicode="&#x1fd;" horiz-adv-x="939" d="M682 505q102 0 162 -70.5t60 -181.5v-15h-425q2 -101 59 -162t158 -61q115 0 181 82l19 -16q-73 -91 -200 -91q-79 0 -134 34.5t-83 95.5v-120h-25v77q-70 -87 -187 -87q-101 0 -166.5 72.5t-65.5 184.5q0 113 65.5 185.5t166.5 72.5q119 0 187 -85v75h25v-123 q28 62 80.5 97.5t122.5 35.5zM267 480q-90 0 -148.5 -66t-58.5 -167t58.5 -166.5t148.5 -65.5q115 0 187 100v265q-72 100 -187 100zM682 480q-87 0 -142.5 -60.5t-60.5 -156.5h400q-3 96 -56 156.5t-141 60.5zM623 690l-148 -109h-39l144 109h43z" />
<glyph unicode="&#x1fe;" horiz-adv-x="795" d="M397 748q92 0 169 -41l59 108h28l-65 -120q79 -49 124 -135.5t45 -192.5q0 -165 -101.5 -272.5t-258.5 -107.5q-95 0 -170 40l-58 -107h-29l65 120q-78 49 -122.5 134.5t-44.5 192.5q0 165 101 273t258 108zM730 367q0 98 -41.5 178t-113.5 126l-335 -620q71 -37 157 -37 q145 0 239 100t94 253zM397 721q-145 0 -238.5 -100.5t-93.5 -253.5q0 -99 40.5 -178.5t112.5 -124.5l335 619q-73 38 -156 38zM547 891l-148 -109h-39l144 109h43z" />
<glyph unicode="&#x1ff;" horiz-adv-x="556" d="M278 505q60 0 112 -27l47 87h28l-54 -99q52 -34 81 -91.5t29 -127.5q0 -112 -68.5 -184.5t-174.5 -72.5q-60 0 -110 25l-46 -85h-29l53 97q-52 33 -81.5 90.5t-29.5 129.5q0 111 68.5 184.5t174.5 73.5zM278 480q-95 0 -156.5 -66t-61.5 -167q0 -65 26 -116.5t72 -81.5 l220 407q-48 24 -100 24zM496 247q0 63 -25.5 114.5t-71.5 81.5l-219 -406q46 -22 98 -22q95 0 156.5 65.5t61.5 166.5zM420 690l-148 -109h-39l144 109h43z" />
<glyph unicode="&#x218;" horiz-adv-x="560" d="M267 748q116 0 212 -78l-16 -22q-87 73 -196 73q-83 0 -135.5 -42t-52.5 -125q0 -71 46 -104t162 -60q126 -30 181 -73.5t55 -125.5q0 -91 -65 -147.5t-172 -56.5q-142 0 -245 88l19 22q42 -39 102 -61t124 -22q91 0 151 46.5t60 130.5q0 69 -51.5 108t-165.5 65 q-126 29 -177 69t-51 121q0 92 59 143t156 51zM277 -60q16 0 26.5 -10.5t10.5 -26.5q0 -8 -3 -17l-39 -134h-4v187q3 1 9 1z" />
<glyph unicode="&#x219;" horiz-adv-x="435" d="M211 505q81 0 150 -53l-15 -20q-60 48 -134 48q-59 0 -94.5 -27t-35.5 -80q0 -45 32 -67t111 -40q89 -20 128.5 -50t39.5 -85q0 -63 -47 -102t-123 -39q-101 0 -177 60l16 20q66 -55 161 -55q64 0 104.5 30.5t40.5 85.5q0 45 -35 69.5t-114 41.5q-89 20 -125.5 48 t-36.5 83q0 63 42.5 97.5t111.5 34.5zM203 -60q16 0 26.5 -10.5t10.5 -26.5q0 -8 -3 -17l-39 -134h-4v187q3 1 9 1z" />
<glyph unicode="&#x2c6;" horiz-adv-x="322" d="M161 708l136 -130h-35l-101 96l-101 -96h-35z" />
<glyph unicode="&#x2c7;" horiz-adv-x="322" d="M297 708l-136 -130l-136 130h35l101 -96l101 96h35z" />
<glyph unicode="&#x2d8;" horiz-adv-x="316" d="M291 706q0 -53 -38 -88t-95 -35t-95 35t-38 88h24q0 -43 31 -71t78 -28t78 28t31 71h24z" />
<glyph unicode="&#x2d9;" horiz-adv-x="111" d="M55 680q13 0 22 -9t9 -22t-9 -21.5t-22 -8.5t-21.5 8.5t-8.5 21.5t8.5 22t21.5 9z" />
<glyph unicode="&#x2da;" horiz-adv-x="231" d="M115 754q39 0 65 -26t26 -64q0 -39 -26 -64t-65 -25t-64.5 25t-25.5 64q0 38 26 64t64 26zM115 730q-28 0 -47 -19t-19 -47t19 -46.5t47 -18.5q29 0 48 18.5t19 46.5t-19.5 47t-47.5 19z" />
<glyph unicode="&#x2db;" horiz-adv-x="203" d="M107 23l5 -23q-51 -21 -51 -76q0 -41 25 -63.5t64 -22.5q22 0 32 5l8 -23q-15 -6 -40 -6q-51 0 -82.5 30.5t-31.5 79.5q0 71 71 99z" />
<glyph unicode="&#x2dc;" horiz-adv-x="339" d="M103 693q22 0 41 -15t30.5 -32.5t28 -32.5t33.5 -15q54 0 54 88h24q0 -57 -21 -85t-57 -28q-22 0 -41 15t-30.5 32.5t-28 32.5t-33.5 15q-54 0 -54 -88h-24q0 57 21 85t57 28z" />
<glyph unicode="&#x2dd;" horiz-adv-x="333" d="M222 706l-123 -135h-24l111 135h36zM358 706l-123 -135h-24l111 135h36z" />
<glyph unicode="&#x3a9;" horiz-adv-x="858" d="M437 748q149 0 237 -96t88 -247q0 -69 -18.5 -129.5t-53 -107.5t-68 -79.5t-76.5 -64.5h275v-24h-324v23q109 65 175 163t66 219q0 139 -81 229t-220 90t-220 -90t-81 -229q0 -121 66 -219t175 -163v-23h-324v24h275q-43 32 -76.5 64.5t-68 79.5t-53 107.5t-18.5 129.5 q0 151 88 247t237 96z" />
<glyph unicode="&#x3c0;" horiz-adv-x="650" d="M610 576l16 -11q-25 -51 -55 -68t-102 -17h-23l-47 -356q-7 -57 5 -80.5t50 -23.5q53 0 92 33l11 -15q-48 -38 -104 -38q-49 0 -65.5 30t-8.5 95l46 355h-165l-40 -292q-14 -103 -47 -188h-25q36 73 51 193l39 287h-44q-51 0 -86.5 -18.5t-71.5 -52.5l-12 16 q44 42 83.5 59t113.5 17h242q71 0 97.5 15t49.5 60z" />
<glyph unicode="&#x1e80;" horiz-adv-x="1002" d="M987 735l-271 -748h-4l-211 661l-211 -661h-4l-271 748h30l242 -669l212 669h4l212 -669l242 669h30zM389 881l144 -109h-39l-148 109h43z" />
<glyph unicode="&#x1e81;" horiz-adv-x="748" d="M733 495l-194 -505h-4l-161 443l-161 -443h-4l-194 505h27l169 -442l161 442h4l161 -442l169 442h27zM262 690l144 -109h-39l-148 109h43z" />
<glyph unicode="&#x1e82;" horiz-adv-x="1002" d="M987 735l-271 -748h-4l-211 661l-211 -661h-4l-271 748h30l242 -669l212 669h4l212 -669l242 669h30zM653 881l-148 -109h-39l144 109h43z" />
<glyph unicode="&#x1e83;" horiz-adv-x="748" d="M733 495l-194 -505h-4l-161 443l-161 -443h-4l-194 505h27l169 -442l161 442h4l161 -442l169 442h27zM528 690l-148 -109h-39l144 109h43z" />
<glyph unicode="&#x1e84;" horiz-adv-x="1002" d="M987 735l-271 -748h-4l-211 661l-211 -661h-4l-271 748h30l242 -669l212 669h4l212 -669l242 669h30zM431 849q13 0 22 -9t9 -22t-9 -21.5t-22 -8.5t-21.5 8.5t-8.5 21.5t8.5 22t21.5 9zM571 849q13 0 22 -9t9 -22t-9 -21.5t-22 -8.5t-21.5 8.5t-8.5 21.5t8.5 22t21.5 9z " />
<glyph unicode="&#x1e85;" horiz-adv-x="748" d="M733 495l-194 -505h-4l-161 443l-161 -443h-4l-194 505h27l169 -442l161 442h4l161 -442l169 442h27zM304 660q13 0 22 -9t9 -22t-9 -21.5t-22 -8.5t-21.5 8.5t-8.5 21.5t8.5 22t21.5 9zM444 660q13 0 22 -9t9 -22t-9 -21.5t-22 -8.5t-21.5 8.5t-8.5 21.5t8.5 22t21.5 9z " />
<glyph unicode="&#x1ef2;" horiz-adv-x="605" d="M594 734l-278 -408v-326h-27v326l-278 408h33l258 -380l259 380h33zM190 881l144 -109h-39l-148 109h43z" />
<glyph unicode="&#x1ef3;" horiz-adv-x="512" d="M487 495l-327 -725h-28l110 244l-217 481h27l204 -452l204 452h27zM144 690l144 -109h-39l-148 109h43z" />
<glyph unicode="&#x2013;" horiz-adv-x="565" d="M520 271v-25h-475v25h475z" />
<glyph unicode="&#x2014;" horiz-adv-x="809" d="M764 271v-25h-719v25h719z" />
<glyph unicode="&#x2018;" horiz-adv-x="146" d="M91 742v-187q-3 -1 -9 -1q-16 0 -26.5 10.5t-10.5 26.5q0 8 3 17l39 134h4z" />
<glyph unicode="&#x2019;" horiz-adv-x="146" d="M64 742q16 0 26.5 -10.5t10.5 -26.5q0 -8 -3 -17l-39 -134h-4v187q3 1 9 1z" />
<glyph unicode="&#x201a;" horiz-adv-x="146" d="M64 64q16 0 26.5 -10.5t10.5 -26.5q0 -8 -3 -17l-39 -134h-4v187q3 1 9 1z" />
<glyph unicode="&#x201c;" horiz-adv-x="292" d="M91 742v-187q-3 -1 -9 -1q-16 0 -26.5 10.5t-10.5 26.5q0 8 3 17l39 134h4zM237 742v-187q-3 -1 -9 -1q-16 0 -26.5 10.5t-10.5 26.5q0 8 3 17l39 134h4z" />
<glyph unicode="&#x201d;" horiz-adv-x="292" d="M64 742q16 0 26.5 -10.5t10.5 -26.5q0 -8 -3 -17l-39 -134h-4v187q3 1 9 1zM210 742q16 0 26.5 -10.5t10.5 -26.5q0 -8 -3 -17l-39 -134h-4v187q3 1 9 1z" />
<glyph unicode="&#x201e;" horiz-adv-x="292" d="M64 64q16 0 26.5 -10.5t10.5 -26.5q0 -8 -3 -17l-39 -134h-4v187q3 1 9 1zM210 64q16 0 26.5 -10.5t10.5 -26.5q0 -8 -3 -17l-39 -134h-4v187q3 1 9 1z" />
<glyph unicode="&#x2020;" horiz-adv-x="486" d="M256 735v-195h195v-26h-195v-514h-26v514h-195v26h195v195h26z" />
<glyph unicode="&#x2021;" horiz-adv-x="486" d="M256 735v-195h195v-26h-195v-293h195v-26h-195v-195h-26v195h-195v26h195v293h-195v26h195v195h26z" />
<glyph unicode="&#x2022;" horiz-adv-x="295" d="M147 361q45 0 74 -29t29 -74q0 -44 -29 -73t-74 -29q-44 0 -73 29t-29 73q0 45 29 74t73 29z" />
<glyph unicode="&#x2026;" horiz-adv-x="522" d="M77 64q16 0 26.5 -10.5t10.5 -26.5t-10.5 -26.5t-26.5 -10.5t-26.5 10.5t-10.5 26.5t10.5 26.5t26.5 10.5zM261 64q16 0 26.5 -10.5t10.5 -26.5t-10.5 -26.5t-26.5 -10.5t-26.5 10.5t-10.5 26.5t10.5 26.5t26.5 10.5zM445 64q16 0 26.5 -10.5t10.5 -26.5t-10.5 -26.5 t-26.5 -10.5t-26.5 10.5t-10.5 26.5t10.5 26.5t26.5 10.5z" />
<glyph unicode="&#x2030;" horiz-adv-x="1231" d="M192 748q73 0 120.5 -51.5t47.5 -129.5q0 -79 -47.5 -129.5t-120.5 -50.5q-74 0 -121 50.5t-47 129.5q0 78 47.5 129.5t120.5 51.5zM192 723q-62 0 -102.5 -44t-40.5 -112q0 -67 40.5 -111t102.5 -44t102.5 44t40.5 111q0 68 -40.5 112t-102.5 44zM617 349 q73 0 120.5 -51.5t47.5 -129.5q0 -79 -47.5 -129.5t-120.5 -50.5t-120.5 50.5t-47.5 129.5q0 78 47.5 129.5t120.5 51.5zM617 324q-62 0 -102.5 -44t-40.5 -112q0 -67 40.5 -111t102.5 -44t102.5 44t40.5 111q0 68 -40.5 112t-102.5 44zM1007 349q73 0 120.5 -51.5 t47.5 -129.5q0 -79 -47.5 -129.5t-120.5 -50.5t-120.5 50.5t-47.5 129.5q0 78 47.5 129.5t120.5 51.5zM1007 324q-62 0 -102.5 -44t-40.5 -112q0 -67 40.5 -111t102.5 -44t102.5 44t40.5 111q0 68 -40.5 112t-102.5 44zM664 735l-488 -735h-33l488 735h33z" />
<glyph unicode="&#x2039;" horiz-adv-x="279" d="M264 458l-214 -202l214 -202h-36l-213 200v4l213 200h36z" />
<glyph unicode="&#x203a;" horiz-adv-x="279" d="M51 458l213 -200v-4l-213 -200h-36l214 202l-214 202h36z" />
<glyph unicode="&#x2044;" horiz-adv-x="162" d="M277 734l-364 -734h-28l365 734h27z" />
<glyph unicode="&#x2070;" horiz-adv-x="379" d="M190 821q71 0 109.5 -58t38.5 -159t-38.5 -159.5t-109.5 -58.5q-72 0 -110.5 58.5t-38.5 159.5t38.5 159t110.5 58zM190 796q-60 0 -91.5 -51t-31.5 -141t31.5 -141t91.5 -51q59 0 90.5 51.5t31.5 140.5t-31.5 140.5t-90.5 51.5z" />
<glyph unicode="&#x2074;" horiz-adv-x="349" d="M252 822v-308h71v-23h-71v-97h-26v97h-195v3l218 328h3zM227 743l-155 -229h155v229z" />
<glyph unicode="&#x2075;" horiz-adv-x="347" d="M282 813v-26h-186v-163q35 21 81 21q60 0 97 -36.5t37 -92.5q0 -54 -36.5 -92t-94.5 -38q-53 0 -83.5 22.5t-50.5 64.5l23 11q33 -72 110 -72q47 0 76.5 30t29.5 75t-30 74t-80 29t-94 -30l-11 5v218h212z" />
<glyph unicode="&#x2076;" horiz-adv-x="348" d="M173 655q57 0 97 -38.5t40 -96.5t-40 -96t-97 -38t-96.5 38t-39.5 96q0 49 31 87l148 206h31l-118 -165q25 7 44 7zM173 631q-46 0 -78 -31.5t-32 -79.5q0 -47 32 -78.5t78 -31.5t78.5 31.5t32.5 78.5t-32.5 79t-78.5 32z" />
<glyph unicode="&#x2077;" horiz-adv-x="346" d="M315 813v-4l-234 -415h-29l224 393h-243v26h282z" />
<glyph unicode="&#x2078;" horiz-adv-x="347" d="M170 821q48 0 81.5 -30.5t33.5 -75.5q0 -33 -18 -59.5t-46 -38.5q39 -14 62.5 -43.5t23.5 -66.5q0 -51 -40 -86t-97 -35t-96.5 35t-39.5 86q0 38 23.5 67.5t61.5 41.5q-28 13 -45.5 39.5t-17.5 59.5q0 45 33.5 75.5t80.5 30.5zM170 603q-46 0 -78 -27.5t-32 -68.5 q0 -40 32 -67.5t78 -27.5t78.5 27.5t32.5 67.5q0 41 -32.5 68.5t-78.5 27.5zM170 797q-37 0 -63 -24t-26 -58q0 -38 26 -62.5t63 -24.5t63 24.5t26 62.5q0 34 -26 58t-63 24z" />
<glyph unicode="&#x2079;" horiz-adv-x="348" d="M174 820q57 0 96.5 -38t39.5 -95q0 -48 -30 -86l-149 -207h-31l118 165q-20 -7 -44 -7q-57 0 -97 38.5t-40 96.5q0 57 40 95t97 38zM174 796q-46 0 -78.5 -31t-32.5 -78t32.5 -79t78.5 -32t78 31.5t32 79.5q0 47 -32 78t-78 31z" />
<glyph unicode="&#x207f;" horiz-adv-x="411" d="M219 742q61 0 96.5 -39t35.5 -104v-211h-25v210q0 54 -30 87t-80 33q-38 0 -65.5 -17t-55.5 -52v-261h-25v347h24v-53q53 60 125 60z" />
<glyph unicode="&#x20ac;" horiz-adv-x="649" d="M417 297v-27h-282q20 -120 87.5 -188.5t166.5 -68.5q111 0 196 77l18 -20q-92 -84 -214 -84q-112 0 -187 75.5t-95 208.5h-66v27h62q-3 33 -3 70q0 35 3 70h-62v27h65q20 133 93.5 208.5t185.5 75.5q75 0 122.5 -22.5t87.5 -59.5l-18 -20q-79 75 -192 75 q-98 0 -164.5 -68.5t-86.5 -188.5h283v-27h-286q-4 -31 -4 -70q0 -41 4 -70h286z" />
<glyph unicode="&#x2113;" horiz-adv-x="584" d="M312 750q64 0 96.5 -36.5t32.5 -95.5q0 -87 -59.5 -169.5t-176.5 -187.5v-105q0 -70 24.5 -107t91.5 -37q96 0 172 144l17 -10q-81 -154 -190 -154q-81 0 -108 43t-27 121v88q-59 -52 -114 -96l-12 16q73 60 125 107v326q0 75 28.5 114t99.5 39zM312 731q-58 0 -83 -33 t-25 -101v-311q106 97 161.5 174.5t55.5 155.5q0 56 -28 85.5t-81 29.5z" />
<glyph unicode="&#x2122;" horiz-adv-x="782" d="M327 735v-25h-141v-351h-25v351h-141v25h307zM742 742v-383h-25v288l-153 -288h-3l-152 288v-288h-25v383h2l177 -334l177 334h2z" />
<glyph unicode="&#x2126;" horiz-adv-x="858" d="M437 748q149 0 237 -96t88 -247q0 -69 -18.5 -129.5t-53 -107.5t-68 -79.5t-76.5 -64.5h275v-24h-324v23q109 65 175 163t66 219q0 139 -81 229t-220 90t-220 -90t-81 -229q0 -121 66 -219t175 -163v-23h-324v24h275q-43 32 -76.5 64.5t-68 79.5t-53 107.5t-18.5 129.5 q0 151 88 247t237 96z" />
<glyph unicode="&#x212e;" horiz-adv-x="591" d="M308 517q-47 0 -92 -16.5t-73 -42.5t-28 -53v-101h362v107q0 39 -23 58q-60 48 -146 48zM308 538q108 0 178 -69t70 -186h-441v-157q0 -32 25 -52q74 -63 168 -63q141 0 229 131l18 -11q-88 -141 -247 -141q-115 0 -194 77t-79 197q0 119 79.5 196.5t193.5 77.5z" />
<glyph unicode="&#x2202;" horiz-adv-x="518" d="M240 748q240 0 240 -447v-20v-21.5t-0.5 -20t-1 -21.5t-1.5 -19.5t-3 -21t-4.5 -19.5t-6 -21t-8 -18.5t-9.5 -19.5q-29 -50 -77.5 -77.5t-108.5 -27.5q-95 0 -159 66t-64 165q0 100 64 167t159 67q124 0 193 -115q-12 379 -213 379q-102 0 -160 -83l-19 16q67 92 179 92z M260 434q-85 0 -141.5 -59t-56.5 -150q0 -90 56 -148t142 -58q85 0 140 58t55 148q0 91 -55 150t-140 59z" />
<glyph unicode="&#x2206;" horiz-adv-x="721" d="M361 646l325 -646h-651zM361 602l-294 -583h587z" />
<glyph unicode="&#x220f;" horiz-adv-x="706" d="M671 740v-23h-160v-818h-22v818h-272v-818h-22v818h-160v23h636z" />
<glyph unicode="&#x2211;" horiz-adv-x="610" d="M563 740v-23h-494l233 -335l-238 -359h511v-23h-540v18l240 363l-237 341v18h525z" />
<glyph unicode="&#x2212;" horiz-adv-x="446" d="M401 363v-25h-356v25h356z" />
<glyph unicode="&#x221a;" horiz-adv-x="697" d="M635 692l19 -8l-283 -753l-176 354l-137 -79l-10 17l159 92l164 -331z" />
<glyph unicode="&#x221e;" horiz-adv-x="721" d="M542 430q66 0 107.5 -45t41.5 -112t-41.5 -112t-107.5 -45q-11 0 -22.5 2t-21 5t-20.5 9t-18 10t-18 13t-15.5 13t-15.5 15l-13.5 13.5t-13 14.5t-11.5 13l-26 28l-25 -29q-78 -91 -149 -91q-60 0 -95.5 40t-35.5 100t35.5 101t95.5 41q42 0 74.5 -23.5t73.5 -70.5 l26 -31l19 24q33 39 52.5 59t53.5 39t70 19zM542 406q-32 0 -63 -18t-48.5 -36.5t-48.5 -55.5l-20 -25l26 -29q2 -2 13.5 -15t16 -18t16 -16.5t18.5 -17t19.5 -14t22.5 -12.5t22.5 -7t25.5 -3q55 0 90 38.5t35 95.5t-35 95t-90 38zM173 391q-50 0 -79.5 -34t-29.5 -85 t29.5 -84t79.5 -33q65 0 134 86l25 30l-26 31q-35 43 -66 66t-67 23z" />
<glyph unicode="&#x222b;" horiz-adv-x="434" d="M321 750q59 0 93 -25l-8 -17q-32 22 -81 22q-94 0 -94 -136v-621q0 -163 -119 -163q-63 0 -97 27l7 17q31 -24 87 -24q100 0 100 143v621q0 156 112 156z" />
<glyph unicode="&#x2248;" horiz-adv-x="565" d="M174 324q36 0 66 -15t47.5 -33t44.5 -33t59 -15q84 0 117 91l22 -10q-40 -105 -139 -105q-36 0 -66 15t-47.5 33t-45 33t-58.5 15q-84 0 -117 -91l-22 10q40 105 139 105zM174 504q36 0 66 -15t47.5 -33t44.5 -33t59 -15q84 0 117 91l22 -10q-40 -105 -139 -105 q-36 0 -66 15t-47.5 33t-45 33t-58.5 15q-84 0 -117 -91l-22 10q40 105 139 105z" />
<glyph unicode="&#x2260;" horiz-adv-x="446" d="M401 263v-25h-208l-39 -102h-29l39 102h-119v25h129l68 175h-197v25h207l42 107h28l-42 -107h121v-25h-130l-68 -175h198z" />
<glyph unicode="&#x2264;" horiz-adv-x="307" d="M282 565l-217 -172l217 -172h-41l-216 170v4l216 170h41zM282 161v-25h-257v25h257z" />
<glyph unicode="&#x2265;" horiz-adv-x="307" d="M66 565l216 -170v-4l-216 -170h-41l217 172l-217 172h41zM282 161v-25h-257v25h257z" />
<glyph unicode="&#x25ca;" horiz-adv-x="569" d="M304 738l238 -402l-238 -401h-17l-240 401l240 402h17zM296 706l-225 -370l225 -371l223 371z" />
<glyph unicode="&#x25fc;" horiz-adv-x="495" d="M0 495h495v-495h-495v495z" />
<glyph unicode="&#xf6c3;" horiz-adv-x="96" d="M34 -60q16 0 26.5 -10.5t10.5 -26.5q0 -8 -3 -17l-39 -134h-4v187q3 1 9 1z" />
<glyph horiz-adv-x="250" />
<glyph horiz-adv-x="632" d="M312 748q133 0 213 -94l-169 -229q93 -6 158.5 -62.5t65.5 -158.5q0 -95 -62 -156t-161 -61q-83 0 -148 38l12 25q60 -36 136 -36q83 0 139.5 51t56.5 139q0 96 -66 147t-174 51l-2 5l179 244q-67 70 -178 70q-91 0 -150 -56t-59 -157v-508h-27v507q0 113 66.5 177 t169.5 64z" />
<glyph horiz-adv-x="653" d="M332 527l271 -247l-271 -247l-15 19l238 216h-505v24h505l-238 216z" />
<glyph horiz-adv-x="986" d="M665 527l271 -247l-271 -247l-15 19l238 216h-838v24h838l-238 216z" />
<glyph horiz-adv-x="653" d="M321 527l15 -19l-238 -216h505v-24h-505l238 -216l-15 -19l-271 247z" />
<glyph horiz-adv-x="986" d="M321 527l15 -19l-238 -216h838v-24h-838l238 -216l-15 -19l-271 247z" />
<glyph horiz-adv-x="808" d="M404 733q159 0 263 -104.5t104 -262.5q0 -101 -37.5 -160t-104.5 -59q-32 0 -51 17.5t-19 50.5v5q-58 -73 -157 -73q-85 0 -140 61t-55 155q0 95 55 156t140 61q100 0 157 -72v63h24v-356q0 -44 46 -44q57 0 87.5 54.5t30.5 140.5q0 147 -97.5 245t-245.5 98 q-149 0 -246 -97.5t-97 -245.5q0 -149 96.5 -245.5t246.5 -96.5q72 0 134 24l11 -21q-70 -27 -145 -27q-160 0 -263.5 103.5t-103.5 262.5q0 158 103.5 262.5t263.5 104.5zM404 556q-75 0 -124 -54.5t-49 -138.5t49 -138t124 -54q94 0 155 83v219q-62 83 -155 83z" />
<glyph horiz-adv-x="237" d="M78 881l144 -109h-39l-148 109h43z" />
<glyph horiz-adv-x="237" d="M202 881l-148 -109h-39l144 109h43z" />
<glyph horiz-adv-x="322" d="M161 901l136 -130h-35l-101 96l-101 -96h-35z" />
<glyph horiz-adv-x="322" d="M297 896l-136 -130l-136 130h35l101 -96l101 96h35z" />
<glyph horiz-adv-x="339" d="M103 891q22 0 41 -15t30.5 -32.5t28 -32.5t33.5 -15q54 0 54 88h24q0 -57 -21 -85t-57 -28q-22 0 -41 15t-30.5 32.5t-28 32.5t-33.5 15q-54 0 -54 -88h-24q0 57 21 85t57 28z" />
<glyph horiz-adv-x="251" d="M55 849q13 0 22 -9t9 -22t-9 -21.5t-22 -8.5t-21.5 8.5t-8.5 21.5t8.5 22t21.5 9zM195 849q13 0 22 -9t9 -22t-9 -21.5t-22 -8.5t-21.5 8.5t-8.5 21.5t8.5 22t21.5 9z" />
<glyph horiz-adv-x="288" d="M263 818v-25h-238v25h238z" />
<glyph horiz-adv-x="316" d="M291 897q0 -53 -38 -88t-95 -35t-95 35t-38 88h24q0 -43 31 -71t78 -28t78 28t31 71h24z" />
<glyph horiz-adv-x="231" d="M115 951q39 0 65 -26t26 -64q0 -39 -26 -64t-65 -25t-64.5 25t-25.5 64q0 38 26 64t64 26zM115 927q-28 0 -47 -19t-19 -47t19 -46.5t47 -18.5q29 0 48 18.5t19 46.5t-19.5 47t-47.5 19z" />
<glyph horiz-adv-x="333" d="M222 891l-123 -115h-24l111 115h36zM358 891l-123 -115h-24l111 115h36z" />
<glyph horiz-adv-x="111" d="M55 836q13 0 22 -9t9 -22t-9 -21.5t-22 -8.5t-21.5 8.5t-8.5 21.5t8.5 22t21.5 9z" />
<glyph horiz-adv-x="245" d="M203 756l17 -18q-140 -162 -140 -371t140 -371l-17 -18q-148 168 -148 389t148 389z" />
<glyph horiz-adv-x="245" d="M42 756q148 -168 148 -389t-148 -389l-17 18q140 162 140 371t-140 371z" />
<glyph horiz-adv-x="270" d="M245 777v-27h-163v-766h163v-27h-190v820h190z" />
<glyph horiz-adv-x="281" d="M226 777v-820h-201v27h174v766h-174v27h201z" />
<glyph horiz-adv-x="326" d="M301 777v-27q-67 0 -108.5 -37t-32.5 -127l10 -103q5 -48 -9.5 -73.5t-52.5 -42.5q38 -17 52.5 -42.5t9.5 -73.5l-10 -103q-9 -90 32.5 -127t108.5 -37v-27q-79 0 -129 45.5t-39 149.5l11 102q6 48 -21 72t-88 39v4q61 15 88 39t21 72l-11 102q-11 104 39 149.5t129 45.5 z" />
<glyph horiz-adv-x="326" d="M25 777q79 0 129 -45.5t39 -149.5l-11 -102q-6 -48 21 -72t88 -39v-4q-61 -15 -88 -39t-21 -72l11 -102q11 -104 -39 -149.5t-129 -45.5v27q67 0 108.5 37t32.5 127l-10 103q-5 48 9.5 73.5t52.5 42.5q-38 17 -52.5 42.5t-9.5 73.5l10 103q9 90 -32.5 127t-108.5 37v27z " />
<glyph horiz-adv-x="279" d="M264 576l-214 -222l214 -222h-36l-213 220v4l213 220h36z" />
<glyph horiz-adv-x="279" d="M51 576l213 -220v-4l-213 -220h-36l214 222l-214 222h36z" />
<glyph horiz-adv-x="414" d="M204 576l-159 -222l159 -222h-31l-158 220v4l158 220h31zM399 576l-159 -222l159 -222h-31l-158 220v4l158 220h31z" />
<glyph horiz-adv-x="414" d="M241 576l158 -220v-4l-158 -220h-31l159 222l-159 222h31zM46 576l158 -220v-4l-158 -220h-31l159 222l-159 222h31z" />
<glyph horiz-adv-x="215" d="M109 687q-13 0 -22 9t-9 22t9 21.5t22 8.5t21.5 -8.5t8.5 -21.5t-8.5 -22t-21.5 -9zM97 0v561h25v-561h-25z" />
<glyph horiz-adv-x="440" d="M224 687q-13 0 -22 9t-9 22t9 21.5t22 8.5t21.5 -8.5t8.5 -21.5t-8.5 -22t-21.5 -9zM229 -13q-82 0 -133 52t-51 136q0 46 17 83.5t41.5 63t49 48.5t41.5 50.5t17 57.5v83h27v-83q0 -35 -17 -65.5t-41.5 -53.5t-49 -47.5t-41.5 -59.5t-17 -77q0 -75 44.5 -118t112.5 -43 t107 32.5t56 101.5l25 -6q-34 -155 -188 -155z" />
<glyph horiz-adv-x="565" d="M520 369v-25h-475v25h475z" />
<glyph horiz-adv-x="131" d="M65 385q13 0 22 -9t9 -22t-9 -21.5t-22 -8.5t-21.5 8.5t-8.5 21.5t8.5 22t21.5 9z" />
<glyph horiz-adv-x="809" d="M764 369v-25h-719v25h719z" />
<glyph horiz-adv-x="446" d="M401 369v-25h-356v25h356z" />
<glyph horiz-adv-x="379" d="M190 427q71 0 109.5 -58t38.5 -159t-38.5 -159.5t-109.5 -58.5q-72 0 -110.5 58.5t-38.5 159.5t38.5 159t110.5 58zM190 402q-60 0 -91.5 -51t-31.5 -141t31.5 -141t91.5 -51q59 0 90.5 51.5t31.5 140.5t-31.5 140.5t-90.5 51.5z" />
<glyph horiz-adv-x="239" d="M170 427v-427h-26v374l-94 -69l-16 21l134 101h2z" />
<glyph horiz-adv-x="346" d="M179 427q53 0 87 -32.5t34 -85.5q0 -41 -14.5 -71.5t-47.5 -68.5l-127 -143h197v-26h-247v4l157 181q30 34 43 61.5t13 62.5q0 43 -27 68t-68 25q-79 0 -99 -78l-24 5q22 98 123 98z" />
<glyph horiz-adv-x="345" d="M177 427q51 0 83.5 -31t32.5 -80q0 -70 -69 -94q41 -12 65 -40t24 -67q0 -55 -36 -89t-93 -34q-55 0 -86.5 23t-51.5 67l23 8q18 -35 44 -53.5t71 -18.5t74 27t29 71q0 39 -32 66t-82 27h-50v24h52q38 0 65 21t27 62q0 39 -25.5 62.5t-65.5 23.5q-71 0 -101 -69l-23 11 q35 83 125 83z" />
<glyph horiz-adv-x="349" d="M252 428v-308h71v-23h-71v-97h-26v97h-195v3l218 328h3zM227 349l-155 -229h155v229z" />
<glyph horiz-adv-x="347" d="M282 419v-26h-186v-163q35 21 81 21q60 0 97 -36.5t37 -92.5q0 -54 -36.5 -92t-94.5 -38q-53 0 -83.5 22.5t-50.5 64.5l23 11q33 -72 110 -72q47 0 76.5 30t29.5 75t-30 74t-80 29t-94 -30l-11 5v218h212z" />
<glyph horiz-adv-x="348" d="M173 261q57 0 97 -38.5t40 -96.5t-40 -96t-97 -38t-96.5 38t-39.5 96q0 49 31 87l148 206h31l-118 -165q25 7 44 7zM173 237q-46 0 -78 -31.5t-32 -79.5q0 -47 32 -78.5t78 -31.5t78.5 31.5t32.5 78.5t-32.5 79t-78.5 32z" />
<glyph horiz-adv-x="346" d="M315 419v-4l-234 -415h-29l224 393h-243v26h282z" />
<glyph horiz-adv-x="347" d="M170 427q48 0 81.5 -30.5t33.5 -75.5q0 -33 -18 -59.5t-46 -38.5q39 -14 62.5 -43.5t23.5 -66.5q0 -51 -40 -86t-97 -35t-96.5 35t-39.5 86q0 38 23.5 67.5t61.5 41.5q-28 13 -45.5 39.5t-17.5 59.5q0 45 33.5 75.5t80.5 30.5zM170 209q-46 0 -78 -27.5t-32 -68.5 q0 -40 32 -67.5t78 -27.5t78.5 27.5t32.5 67.5q0 41 -32.5 68.5t-78.5 27.5zM170 403q-37 0 -63 -24t-26 -58q0 -38 26 -62.5t63 -24.5t63 24.5t26 62.5q0 34 -26 58t-63 24z" />
<glyph horiz-adv-x="348" d="M174 426q57 0 96.5 -38t39.5 -95q0 -48 -30 -86l-149 -207h-31l118 165q-20 -7 -44 -7q-57 0 -97 38.5t-40 96.5q0 57 40 95t97 38zM174 402q-46 0 -78.5 -31t-32.5 -78t32.5 -79t78.5 -32t78 31.5t32 79.5q0 47 -32 78t-78 31z" />
<glyph horiz-adv-x="379" d="M190 741q71 0 109.5 -58t38.5 -159t-38.5 -159.5t-109.5 -58.5q-72 0 -110.5 58.5t-38.5 159.5t38.5 159t110.5 58zM190 716q-60 0 -91.5 -51t-31.5 -141t31.5 -141t91.5 -51q59 0 90.5 51.5t31.5 140.5t-31.5 140.5t-90.5 51.5z" />
<glyph horiz-adv-x="239" d="M170 741v-427h-26v374l-94 -69l-16 21l134 101h2z" />
<glyph horiz-adv-x="346" d="M179 741q53 0 87 -32.5t34 -85.5q0 -41 -14.5 -71.5t-47.5 -68.5l-127 -143h197v-26h-247v4l157 181q30 34 43 61.5t13 62.5q0 43 -27 68t-68 25q-79 0 -99 -78l-24 5q22 98 123 98z" />
<glyph horiz-adv-x="345" d="M177 741q51 0 83.5 -31t32.5 -80q0 -70 -69 -94q41 -12 65 -40t24 -67q0 -55 -36 -89t-93 -34q-55 0 -86.5 23t-51.5 67l23 8q18 -35 44 -53.5t71 -18.5t74 27t29 71q0 39 -32 66t-82 27h-50v24h52q38 0 65 21t27 62q0 39 -25.5 62.5t-65.5 23.5q-71 0 -101 -69l-23 11 q35 83 125 83z" />
<glyph horiz-adv-x="349" d="M252 742v-308h71v-23h-71v-97h-26v97h-195v3l218 328h3zM227 663l-155 -229h155v229z" />
<glyph horiz-adv-x="347" d="M282 733v-26h-186v-163q35 21 81 21q60 0 97 -36.5t37 -92.5q0 -54 -36.5 -92t-94.5 -38q-53 0 -83.5 22.5t-50.5 64.5l23 11q33 -72 110 -72q47 0 76.5 30t29.5 75t-30 74t-80 29t-94 -30l-11 5v218h212z" />
<glyph horiz-adv-x="348" d="M173 575q57 0 97 -38.5t40 -96.5t-40 -96t-97 -38t-96.5 38t-39.5 96q0 49 31 87l148 206h31l-118 -165q25 7 44 7zM173 551q-46 0 -78 -31.5t-32 -79.5q0 -47 32 -78.5t78 -31.5t78.5 31.5t32.5 78.5t-32.5 79t-78.5 32z" />
<glyph horiz-adv-x="346" d="M315 733v-4l-234 -415h-29l224 393h-243v26h282z" />
<glyph horiz-adv-x="347" d="M170 741q48 0 81.5 -30.5t33.5 -75.5q0 -33 -18 -59.5t-46 -38.5q39 -14 62.5 -43.5t23.5 -66.5q0 -51 -40 -86t-97 -35t-96.5 35t-39.5 86q0 38 23.5 67.5t61.5 41.5q-28 13 -45.5 39.5t-17.5 59.5q0 45 33.5 75.5t80.5 30.5zM170 523q-46 0 -78 -27.5t-32 -68.5 q0 -40 32 -67.5t78 -27.5t78.5 27.5t32.5 67.5q0 41 -32.5 68.5t-78.5 27.5zM170 717q-37 0 -63 -24t-26 -58q0 -38 26 -62.5t63 -24.5t63 24.5t26 62.5q0 34 -26 58t-63 24z" />
<glyph horiz-adv-x="348" d="M174 740q57 0 96.5 -38t39.5 -95q0 -48 -30 -86l-149 -207h-31l118 165q-20 -7 -44 -7q-57 0 -97 38.5t-40 96.5q0 57 40 95t97 38zM174 716q-46 0 -78.5 -31t-32.5 -78t32.5 -79t78.5 -32t78 31.5t32 79.5q0 47 -32 78t-78 31z" />
<glyph horiz-adv-x="379" d="M190 327q71 0 109.5 -58t38.5 -159t-38.5 -159.5t-109.5 -58.5q-72 0 -110.5 58.5t-38.5 159.5t38.5 159t110.5 58zM190 302q-60 0 -91.5 -51t-31.5 -141t31.5 -141t91.5 -51q59 0 90.5 51.5t31.5 140.5t-31.5 140.5t-90.5 51.5z" />
<glyph horiz-adv-x="239" d="M170 327v-427h-26v374l-94 -69l-16 21l134 101h2z" />
<glyph horiz-adv-x="346" d="M179 327q53 0 87 -32.5t34 -85.5q0 -41 -14.5 -71.5t-47.5 -68.5l-127 -143h197v-26h-247v4l157 181q30 34 43 61.5t13 62.5q0 43 -27 68t-68 25q-79 0 -99 -78l-24 5q22 98 123 98z" />
<glyph horiz-adv-x="345" d="M177 327q51 0 83.5 -31t32.5 -80q0 -70 -69 -94q41 -12 65 -40t24 -67q0 -55 -36 -89t-93 -34q-55 0 -86.5 23t-51.5 67l23 8q18 -35 44 -53.5t71 -18.5t74 27t29 71q0 39 -32 66t-82 27h-50v24h52q38 0 65 21t27 62q0 39 -25.5 62.5t-65.5 23.5q-71 0 -101 -69l-23 11 q35 83 125 83z" />
<glyph horiz-adv-x="349" d="M252 328v-308h71v-23h-71v-97h-26v97h-195v3l218 328h3zM227 249l-155 -229h155v229z" />
<glyph horiz-adv-x="347" d="M282 319v-26h-186v-163q35 21 81 21q60 0 97 -36.5t37 -92.5q0 -54 -36.5 -92t-94.5 -38q-53 0 -83.5 22.5t-50.5 64.5l23 11q33 -72 110 -72q47 0 76.5 30t29.5 75t-30 74t-80 29t-94 -30l-11 5v218h212z" />
<glyph horiz-adv-x="348" d="M173 161q57 0 97 -38.5t40 -96.5t-40 -96t-97 -38t-96.5 38t-39.5 96q0 49 31 87l148 206h31l-118 -165q25 7 44 7zM173 137q-46 0 -78 -31.5t-32 -79.5q0 -47 32 -78.5t78 -31.5t78.5 31.5t32.5 78.5t-32.5 79t-78.5 32z" />
<glyph horiz-adv-x="346" d="M315 319v-4l-234 -415h-29l224 393h-243v26h282z" />
<glyph horiz-adv-x="347" d="M170 327q48 0 81.5 -30.5t33.5 -75.5q0 -33 -18 -59.5t-46 -38.5q39 -14 62.5 -43.5t23.5 -66.5q0 -51 -40 -86t-97 -35t-96.5 35t-39.5 86q0 38 23.5 67.5t61.5 41.5q-28 13 -45.5 39.5t-17.5 59.5q0 45 33.5 75.5t80.5 30.5zM170 109q-46 0 -78 -27.5t-32 -68.5 q0 -40 32 -67.5t78 -27.5t78.5 27.5t32.5 67.5q0 41 -32.5 68.5t-78.5 27.5zM170 303q-37 0 -63 -24t-26 -58q0 -38 26 -62.5t63 -24.5t63 24.5t26 62.5q0 34 -26 58t-63 24z" />
<glyph horiz-adv-x="348" d="M174 326q57 0 96.5 -38t39.5 -95q0 -48 -30 -86l-149 -207h-31l118 165q-20 -7 -44 -7q-57 0 -97 38.5t-40 96.5q0 57 40 95t97 38zM174 302q-46 0 -78.5 -31t-32.5 -78t32.5 -79t78.5 -32t78 31.5t32 79.5q0 47 -32 78t-78 31z" />
<glyph horiz-adv-x="600" d="M300 748q119 0 182 -101.5t63 -278.5q0 -178 -63 -279.5t-182 -101.5t-182 101.5t-63 279.5q0 177 63 278.5t182 101.5zM300 721q-105 0 -161.5 -94.5t-56.5 -258.5q0 -165 56.5 -259.5t161.5 -94.5t161.5 94.5t56.5 259.5q0 164 -56.5 258.5t-161.5 94.5z" />
<glyph horiz-adv-x="600" d="M360 748v-721h160v-27h-347v27h160v665l-209 -164l-16 22l248 198h4z" />
<glyph horiz-adv-x="600" d="M295 748q85 0 140.5 -55t55.5 -145q0 -75 -24.5 -130t-82.5 -123l-227 -268h348v-27h-402v6l262 309q54 63 76.5 114t22.5 119q0 80 -47.5 126.5t-121.5 46.5q-73 0 -115.5 -35t-59.5 -109l-25 6q37 165 200 165z" />
<glyph horiz-adv-x="600" d="M288 748q82 0 135 -51.5t53 -136.5q0 -127 -120 -166q72 -21 113.5 -72t41.5 -122q0 -96 -58 -154.5t-152 -58.5q-89 0 -140 37.5t-87 108.5l24 12q31 -63 77.5 -97t125.5 -34q81 0 132 51t51 135q0 76 -57 127t-146 51h-84v27h87q68 0 116.5 39t48.5 116q0 73 -45 117 t-116 44q-124 0 -181 -127l-24 11q62 143 205 143z" />
<glyph horiz-adv-x="600" d="M417 735v-524h125v-27h-125v-184h-27v184h-324v4l346 547h5zM390 651l-278 -440h278v440z" />
<glyph horiz-adv-x="600" d="M472 735v-27h-318v-313q69 40 147 40q100 0 159.5 -63.5t59.5 -158.5q0 -94 -59 -160t-155 -66q-87 0 -136 38.5t-83 110.5l25 11q30 -64 73.5 -98.5t120.5 -34.5q83 0 135 57t52 142t-52.5 140t-140.5 55t-167 -57l-6 2v382h345z" />
<glyph horiz-adv-x="600" d="M299 454q94 0 159 -66.5t65 -167.5t-65 -167t-159 -66t-158.5 66t-64.5 167q0 91 54 155l249 360h33l-209 -303q46 22 96 22zM299 427q-82 0 -139 -59t-57 -148t57 -147.5t139 -58.5t139.5 58.5t57.5 147.5t-57.5 148t-139.5 59z" />
<glyph horiz-adv-x="600" d="M542 735v-6l-395 -729h-31l385 708h-421v27h462z" />
<glyph horiz-adv-x="600" d="M299 748q77 0 131 -51.5t54 -129.5q0 -60 -30.5 -106.5t-79.5 -68.5q66 -21 107.5 -74.5t41.5 -122.5q0 -88 -65.5 -148t-158.5 -60t-158 59.5t-65 148.5q0 69 41 122.5t107 74.5q-49 22 -79 68.5t-30 106.5q0 78 53.5 129.5t130.5 51.5zM299 377q-82 0 -139 -52.5 t-57 -129.5t57 -129t139 -52t139.5 52t57.5 129t-57.5 129.5t-139.5 52.5zM299 721q-65 0 -111 -44t-46 -110q0 -70 46 -116.5t111 -46.5q66 0 112 46.5t46 116.5q0 66 -46 110t-112 44z" />
<glyph horiz-adv-x="600" d="M300 748q94 0 158.5 -66t64.5 -167q0 -89 -54 -156l-249 -359h-33l209 302q-44 -21 -96 -21q-94 0 -159 66.5t-65 167.5t65 167t159 66zM300 721q-82 0 -139.5 -58.5t-57.5 -147.5t57.5 -148t139.5 -59t139 59t57 148t-57 147.5t-139 58.5z" />
<glyph horiz-adv-x="580" d="M290 570q106 0 175.5 -83t69.5 -208t-69.5 -207t-175.5 -82t-175.5 82t-69.5 207t69.5 208t175.5 83zM290 545q-95 0 -157 -76t-62 -190q0 -115 62 -189.5t157 -74.5t157 74.5t62 189.5q0 114 -62.5 190t-156.5 76z" />
<glyph horiz-adv-x="340" d="M248 570v-570h-27v514l-170 -145l-16 22l209 179h4z" />
<glyph horiz-adv-x="524" d="M272 570q83 0 136 -50t53 -136q0 -46 -19.5 -85t-39.5 -58.5t-61 -53.5q-4 -3 -6.5 -5.5t-5.5 -4.5l-181 -150h337v-27h-402v6l229 193q4 3 17.5 14.5t18.5 15.5t16.5 14.5t16.5 16t14.5 16t13.5 18t10 19t8.5 21.5t4.5 23t2 26q0 78 -44.5 119t-117.5 41 q-102 0 -152 -90l-22 13q58 104 174 104z" />
<glyph horiz-adv-x="524" d="M271 570q82 0 135 -50t53 -133q0 -122 -120 -161q72 -20 113.5 -70t41.5 -118q0 -93 -58 -150t-152 -57q-89 0 -140 36.5t-87 105.5l24 12q31 -61 77.5 -94t125.5 -33q82 0 132.5 49.5t50.5 130.5q0 74 -57 123t-146 49h-84v27h87q68 0 116.5 38t48.5 112q0 71 -45 113.5 t-116 42.5q-124 0 -181 -123l-24 11q62 139 205 139z" />
<glyph horiz-adv-x="524" d="M382 570v-508h125v-27h-125v-178h-27v178h-324v3l346 532h5zM355 486l-276 -424h276v424z" />
<glyph horiz-adv-x="524" d="M439 559v-27h-318v-303q70 39 147 39q100 0 159.5 -62t59.5 -154q0 -91 -59 -155t-155 -64q-87 0 -136 37t-83 108l25 10q30 -62 74 -95t120 -33q83 0 135 55t52 137q0 83 -52.5 136t-140.5 53t-167 -55l-6 2v371h345z" />
<glyph horiz-adv-x="524" d="M261 441q93 0 158.5 -65t65.5 -163t-65 -162t-159 -64t-158.5 64t-64.5 162q0 90 56 154l247 346h33l-209 -293q47 21 96 21zM261 414q-82 0 -139 -57t-57 -144q0 -86 57 -142.5t139 -56.5t139.5 56.5t57.5 142.5q0 87 -57.5 144t-139.5 57z" />
<glyph horiz-adv-x="524" d="M493 560v-6l-395 -707h-31l383 686h-419v27h462z" />
<glyph horiz-adv-x="524" d="M256 726q77 0 131 -50t54 -126q0 -59 -30.5 -104t-79.5 -66q66 -21 107.5 -72.5t41.5 -118.5q0 -86 -65.5 -144t-158.5 -58t-158 58t-65 144q0 67 41 119t107 72q-49 21 -79 66t-30 104q0 76 53.5 126t130.5 50zM256 365q-82 0 -139 -50.5t-57 -125.5q0 -74 57 -124.5 t139 -50.5t139.5 50.5t57.5 124.5q0 75 -57.5 125.5t-139.5 50.5zM256 699q-65 0 -111 -42.5t-46 -106.5q0 -68 46 -113t111 -45q66 0 112 45t46 113q0 64 -46 106.5t-112 42.5z" />
<glyph horiz-adv-x="524" d="M262 570q94 0 158.5 -64t64.5 -162q0 -89 -55 -152l-248 -348h-33l209 294q-44 -21 -96 -21q-94 0 -159 64.5t-65 162.5t65 162t159 64zM262 543q-82 0 -139.5 -56.5t-57.5 -142.5t57.5 -143t139.5 -57t139 56.5t57 143.5q0 86 -57 142.5t-139 56.5z" />
<glyph horiz-adv-x="416" d="M193 742q82 0 129 -58v51h24v-347h-24v53q-47 -60 -129 -60q-70 0 -116 51t-46 129q0 79 46 130t116 51zM195 719q-61 0 -100 -44.5t-39 -113.5q0 -68 39 -112t100 -44q78 0 126 67v179q-49 68 -126 68z" />
<glyph horiz-adv-x="416" d="M95 920v-236q47 58 128 58q70 0 116 -51t46 -130q0 -78 -46 -129t-116 -51q-82 0 -129 60v-53h-24v532h25zM221 719q-77 0 -126 -68v-179q48 -67 126 -67q61 0 100 44t39 112q0 69 -39 113.5t-100 44.5z" />
<glyph horiz-adv-x="364" d="M200 742q87 0 139 -71l-19 -15q-45 63 -120 63q-69 0 -106.5 -43t-37.5 -114q0 -70 38.5 -113.5t107.5 -43.5q79 0 122 63l19 -15q-52 -72 -141 -72q-81 0 -126 50t-45 131q0 80 44.5 130t124.5 50z" />
<glyph horiz-adv-x="416" d="M346 920v-532h-24v53q-47 -60 -129 -60q-70 0 -116 51t-46 129q0 79 46 130t116 51q81 0 128 -58v236h25zM195 719q-61 0 -100 -44.5t-39 -113.5q0 -68 39 -112t100 -44q78 0 126 67v179q-49 68 -126 68z" />
<glyph horiz-adv-x="380" d="M192 742q73 0 115 -49.5t42 -126.5v-12h-293q2 -68 40 -109t106 -41q77 0 123 56l18 -15q-51 -64 -141 -64q-81 0 -126 50t-45 130q0 79 44.5 130t116.5 51zM192 720q-59 0 -96 -40.5t-40 -105.5h268q-2 65 -37.5 105.5t-94.5 40.5z" />
<glyph horiz-adv-x="243" d="M186 920q42 0 70 -28l-14 -19q-21 23 -55 23q-32 0 -51.5 -23.5t-19.5 -59.5v-78h110v-23h-110v-324h-25v324h-68v23h68v77q0 47 26 77.5t69 30.5z" />
<glyph horiz-adv-x="416" d="M193 742q82 0 129 -58v51h24v-345q0 -79 -44.5 -124.5t-119.5 -45.5q-91 0 -146 70l18 16q48 -62 128 -62q63 0 101 39t38 107v51q-48 -59 -128 -59q-70 0 -116 51t-46 129q0 79 45.5 129.5t116.5 50.5zM195 719q-61 0 -100 -44.5t-39 -112.5t39 -112.5t100 -44.5 q77 0 126 68v178q-49 68 -126 68z" />
<glyph horiz-adv-x="411" d="M95 920v-238q49 60 124 60q61 0 96.5 -39t35.5 -104v-211h-25v210q0 54 -30 87t-80 33q-38 0 -65.5 -17t-55.5 -52v-261h-25v532h25z" />
<glyph horiz-adv-x="164" d="M94 735v-347h-24v347h24zM82 875q10 0 17.5 -7.5t7.5 -17.5t-7.5 -17.5t-17.5 -7.5t-17 7t-7 18t7 18t17 7z" />
<glyph horiz-adv-x="165" d="M95 735v-413q0 -44 -31.5 -73t-80.5 -29v24q38 0 62.5 22t24.5 55v414h25zM83 875q11 0 18 -7.5t7 -17.5t-7 -17.5t-18 -7.5q-10 0 -17 7t-7 18t7 18t17 7z" />
<glyph horiz-adv-x="360" d="M95 920v-487l194 302h29l-106 -162l133 -185h-30l-118 163l-105 -163h-22v532h25z" />
<glyph horiz-adv-x="165" d="M95 920v-532h-25v532h25z" />
<glyph horiz-adv-x="651" d="M216 742q82 0 114 -73q52 73 134 73q59 0 93 -39.5t34 -103.5v-211h-25v210q0 53 -29 86.5t-76 33.5q-67 0 -123 -73q5 -23 5 -45v-212h-25v210q0 53 -29 86.5t-76 33.5q-67 0 -118 -67v-263h-25v347h24v-51q49 58 122 58z" />
<glyph horiz-adv-x="405" d="M203 742q74 0 122.5 -51.5t48.5 -129.5t-48.5 -129t-122.5 -51q-75 0 -123.5 51t-48.5 129t48.5 129.5t123.5 51.5zM203 719q-64 0 -105.5 -44.5t-41.5 -113.5q0 -68 41.5 -112t105.5 -44q63 0 104.5 44t41.5 112t-41.5 113t-104.5 45z" />
<glyph horiz-adv-x="416" d="M223 742q70 0 116 -51t46 -129q0 -79 -46 -130t-116 -51q-81 0 -128 58v-212h-25v508h24v-53q47 60 129 60zM221 719q-77 0 -126 -68v-179q48 -67 126 -67q61 0 100 44t39 113q0 68 -39 112.5t-100 44.5z" />
<glyph horiz-adv-x="416" d="M193 742q82 0 129 -60v53h24v-508h-25v212q-47 -58 -128 -58q-70 0 -116 51t-46 130q0 78 46 129t116 51zM195 719q-61 0 -100 -44.5t-39 -112.5q0 -69 39 -113t100 -44q78 0 126 67v179q-49 68 -126 68z" />
<glyph horiz-adv-x="218" d="M202 742v-25h-4q-62 0 -103 -67v-262h-25v347h24v-52q38 59 108 59z" />
<glyph horiz-adv-x="321" d="M157 742q58 0 107 -37l-13 -19q-41 34 -93 34q-40 0 -63.5 -18t-23.5 -54q0 -30 21.5 -44.5t75.5 -27.5q62 -14 89.5 -35t27.5 -60q0 -44 -33.5 -72t-88.5 -28q-72 0 -125 42l13 19q46 -38 112 -38q43 0 70 20t27 57q0 30 -23.5 46.5t-77.5 28.5q-62 14 -87.5 33.5 t-25.5 58.5q0 45 30.5 69.5t80.5 24.5z" />
<glyph horiz-adv-x="263" d="M110 855v-120h122v-23h-122v-225q0 -40 20.5 -61t55.5 -21q38 0 55 12l11 -20q-23 -16 -67 -16q-45 0 -72 27.5t-27 78.5v225h-75v23h75v120h24z" />
<glyph horiz-adv-x="402" d="M332 735v-347h-24v51q-52 -58 -125 -58q-57 0 -90 38.5t-33 101.5v214h25v-213q0 -52 27.5 -84.5t72.5 -32.5q41 0 68.5 16.5t53.5 50.5v263h25z" />
<glyph horiz-adv-x="363" d="M346 735l-163 -354h-3l-163 354h27l138 -304l137 304h27z" />
<glyph horiz-adv-x="539" d="M522 735l-139 -354h-2l-111 300l-112 -300h-2l-139 354h27l114 -298l110 298h3l110 -298l114 298h27z" />
<glyph horiz-adv-x="334" d="M305 735l-122 -170l128 -177h-30l-114 158l-114 -158h-30l128 177l-122 170h29l109 -150l109 150h29z" />
<glyph horiz-adv-x="377" d="M353 735l-233 -508h-27l82 177l-151 331h27l138 -305l137 305h27z" />
<glyph horiz-adv-x="308" d="M283 735v-3l-218 -321h218v-23h-259v3l217 321h-205v23h247z" />
<glyph horiz-adv-x="616" d="M308 760q118 0 195.5 -82.5t77.5 -207.5t-77.5 -207t-195.5 -82q-120 0 -196.5 81.5t-76.5 207.5q0 125 77 207.5t196 82.5zM308 736q-109 0 -179 -75.5t-70 -190.5t70 -190t179 -75q108 0 178.5 75t70.5 190q0 114 -70.5 190t-178.5 76z" />
<glyph horiz-adv-x="580" d="M290 748q119 0 182 -101.5t63 -278.5q0 -178 -63 -279.5t-182 -101.5t-182 101.5t-63 279.5q0 177 63 278.5t182 101.5zM508 368q0 172 -61 265l-299 -553q55 -66 142 -66q105 0 161.5 94.5t56.5 259.5zM290 721q-105 0 -161.5 -94.5t-56.5 -258.5q0 -174 60 -265 l299 552q-57 66 -141 66z" />
</font>
</defs>
</svg>
